<svg width="72" height="26" viewBox="0 0 72 26" fill="none" xmlns="http://www.w3.org/2000/svg">
<rect width="71.0321" height="26" rx="4" fill="#1A9F83"/>
<path d="M11.9492 14.2031L14.758 19.8048L19.9424 19.8133L21.197 18.0522L11.9492 14.2031Z" fill="white"/>
<path d="M10 14.8203L13.7763 19.9894L19.9428 19.9995L21.1974 18.0657L10 14.8203Z" fill="#DADADA"/>
<path d="M14.5273 8.52097L16.3654 9.94262L18.0273 6.7627L17.4626 6.40234L14.5273 8.52097Z" fill="#DADADA"/>
<path d="M19.9422 19.9996L14.5273 8.52341L15.6857 7.6875L21.9864 16.8474L19.9422 19.9996Z" fill="white"/>
<path d="M16.9414 6.78114L20.4685 9.62217L17.9933 6L16.9414 6.78114Z" fill="white"/>
<path d="M28.9883 17.1143V8.88228H33.0563C33.6243 8.88228 34.0963 8.99028 34.4723 9.20628C34.8483 9.41428 35.1283 9.70628 35.3123 10.0823C35.5043 10.4583 35.6003 10.8943 35.6003 11.3903C35.6003 11.8943 35.4963 12.3423 35.2883 12.7343C35.0803 13.1183 34.7843 13.4183 34.4003 13.6343C34.0243 13.8503 33.5723 13.9583 33.0443 13.9583H30.1283V17.1143H28.9883ZM30.1283 12.9743H32.9723C33.4203 12.9743 33.7763 12.8343 34.0403 12.5543C34.3123 12.2743 34.4483 11.8903 34.4483 11.4023C34.4483 11.0743 34.3923 10.7983 34.2803 10.5743C34.1683 10.3503 34.0043 10.1783 33.7883 10.0583C33.5723 9.93028 33.3003 9.86628 32.9723 9.86628H30.1283V12.9743Z" fill="white"/>
<path d="M37.9288 17.1143V8.88228H39.0688V16.1183H43.1608V17.1143H37.9288Z" fill="white"/>
<path d="M48.2365 17.2583C47.5405 17.2583 46.9405 17.1463 46.4365 16.9223C45.9325 16.6983 45.5445 16.3463 45.2725 15.8663C45.0085 15.3783 44.8765 14.7543 44.8765 13.9943V8.88228H46.0165V14.1143C46.0165 14.8343 46.2085 15.3743 46.5925 15.7343C46.9845 16.0943 47.5325 16.2743 48.2365 16.2743C48.9485 16.2743 49.5045 16.0943 49.9045 15.7343C50.3045 15.3743 50.5045 14.8343 50.5045 14.1143V8.88228H51.6325V13.9943C51.6325 14.7543 51.4965 15.3783 51.2245 15.8663C50.9525 16.3463 50.5605 16.6983 50.0485 16.9223C49.5445 17.1463 48.9405 17.2583 48.2365 17.2583Z" fill="white"/>
<path d="M57.6618 17.2583C57.2138 17.2583 56.7818 17.2143 56.3658 17.1263C55.9578 17.0383 55.5938 16.8983 55.2738 16.7063C54.9538 16.5063 54.6978 16.2503 54.5058 15.9383C54.3218 15.6263 54.2298 15.2423 54.2298 14.7863C54.2298 14.7463 54.2298 14.7063 54.2298 14.6663C54.2378 14.6263 54.2418 14.5863 54.2418 14.5463H55.3938C55.3938 14.5703 55.3898 14.6103 55.3818 14.6663C55.3818 14.7143 55.3818 14.7583 55.3818 14.7983C55.3818 15.1183 55.4778 15.3903 55.6698 15.6143C55.8618 15.8383 56.1258 16.0063 56.4618 16.1183C56.8058 16.2223 57.1938 16.2743 57.6258 16.2743C57.8178 16.2743 58.0178 16.2623 58.2258 16.2383C58.4418 16.2143 58.6458 16.1743 58.8378 16.1183C59.0378 16.0543 59.2138 15.9743 59.3658 15.8783C59.5258 15.7743 59.6498 15.6503 59.7378 15.5063C59.8338 15.3543 59.8818 15.1703 59.8818 14.9543C59.8818 14.6823 59.8018 14.4583 59.6418 14.2823C59.4898 14.0983 59.2858 13.9503 59.0298 13.8383C58.7738 13.7183 58.4818 13.6143 58.1538 13.5263C57.8338 13.4303 57.5018 13.3383 57.1578 13.2503C56.8138 13.1623 56.4778 13.0623 56.1498 12.9503C55.8298 12.8303 55.5418 12.6863 55.2858 12.5183C55.0298 12.3423 54.8218 12.1263 54.6618 11.8703C54.5098 11.6143 54.4338 11.3023 54.4338 10.9343C54.4338 10.5903 54.5018 10.2823 54.6378 10.0103C54.7818 9.73828 54.9898 9.51028 55.2618 9.32628C55.5418 9.13428 55.8858 8.99028 56.2938 8.89428C56.7018 8.79028 57.1698 8.73828 57.6978 8.73828C58.1298 8.73828 58.5298 8.78628 58.8978 8.88228C59.2738 8.97028 59.6018 9.11028 59.8818 9.30228C60.1698 9.48628 60.3938 9.72228 60.5538 10.0103C60.7138 10.2983 60.7938 10.6463 60.7938 11.0543V11.1983H59.6658V11.0183C59.6658 10.7463 59.5818 10.5143 59.4138 10.3223C59.2458 10.1303 59.0138 9.98228 58.7178 9.87828C58.4298 9.77428 58.1018 9.72228 57.7338 9.72228C57.2538 9.72228 56.8538 9.77028 56.5338 9.86628C56.2138 9.95428 55.9738 10.0863 55.8138 10.2623C55.6618 10.4303 55.5858 10.6223 55.5858 10.8383C55.5858 11.0863 55.6618 11.2943 55.8138 11.4623C55.9738 11.6303 56.1818 11.7703 56.4378 11.8823C56.6938 11.9863 56.9858 12.0823 57.3138 12.1703C57.6418 12.2583 57.9738 12.3503 58.3098 12.4463C58.6538 12.5343 58.9858 12.6383 59.3058 12.7583C59.6338 12.8703 59.9258 13.0143 60.1818 13.1903C60.4458 13.3583 60.6538 13.5743 60.8058 13.8383C60.9578 14.0943 61.0338 14.4103 61.0338 14.7863C61.0338 15.3703 60.8898 15.8463 60.6018 16.2143C60.3138 16.5743 59.9178 16.8383 59.4138 17.0063C58.9098 17.1743 58.3258 17.2583 57.6618 17.2583Z" fill="white"/>
</svg>
