<?xml version="1.0" encoding="UTF-8" standalone="no"?>
<!DOCTYPE svg PUBLIC "-//W3C//DTD SVG 1.1//EN"
 "http://www.w3.org/Graphics/SVG/1.1/DTD/svg11.dtd">
<!-- Generated by graphviz version 2.43.0 (0)
 -->
<!-- Title: workflow Pages: 1 -->
<svg width="1277pt" height="503pt"
 viewBox="0.00 0.00 1276.87 502.50" xmlns="http://www.w3.org/2000/svg" xmlns:xlink="http://www.w3.org/1999/xlink">
<g id="graph0" class="graph" transform="scale(1 1) rotate(0) translate(4 498.5)">
<title>workflow</title>
<polygon fill="white" stroke="transparent" points="-4,4 -4,-498.5 1272.87,-498.5 1272.87,4 -4,4"/>
<!-- place_8bfb4e1aa590eab8f08f837b97acf5803a5737ed -->
<g id="node1" class="node">
<title>place_8bfb4e1aa590eab8f08f837b97acf5803a5737ed</title>
<ellipse fill="lightblue" stroke="#333333" cx="36" cy="-93" rx="36" ry="36"/>
<text text-anchor="middle" x="36" y="-90.8" font-family="Arial" font-size="9.00">cart</text>
</g>
<!-- place_74c70e83a9f58141487d73749193bf049153a472 -->
<g id="node2" class="node">
<title>place_74c70e83a9f58141487d73749193bf049153a472</title>
<ellipse fill="none" stroke="#333333" cx="36" cy="-183" rx="36" ry="36"/>
<text text-anchor="middle" x="36" y="-180.8" font-family="Arial" font-size="9.00">addressed</text>
</g>
<!-- transition_1b6453892473a467d07372d45eb05abc2031647a -->
<g id="node12" class="node">
<title>transition_1b6453892473a467d07372d45eb05abc2031647a</title>
<polygon fill="none" stroke="#333333" points="182,-342 108,-342 108,-268 182,-268 182,-342"/>
<text text-anchor="middle" x="145" y="-302.8" font-family="Arial" font-size="9.00">skip_shipping</text>
</g>
<!-- place_74c70e83a9f58141487d73749193bf049153a472&#45;&gt;transition_1b6453892473a467d07372d45eb05abc2031647a -->
<g id="edge9" class="edge">
<title>place_74c70e83a9f58141487d73749193bf049153a472&#45;&gt;transition_1b6453892473a467d07372d45eb05abc2031647a</title>
<path fill="none" stroke="#333333" d="M60.48,-209.77C74.32,-225.55 92.13,-245.85 107.74,-263.65"/>
<polygon fill="#333333" stroke="#333333" points="106.63,-265.04 111.24,-267.65 109.26,-262.73 106.63,-265.04"/>
</g>
<!-- transition_ac3478d69a3c81fa62e60f5c3696165a4e5e6ac4 -->
<g id="node13" class="node">
<title>transition_ac3478d69a3c81fa62e60f5c3696165a4e5e6ac4</title>
<polygon fill="none" stroke="#333333" points="304.46,-181.5 223.46,-181.5 223.46,-100.5 304.46,-100.5 304.46,-181.5"/>
<text text-anchor="middle" x="263.96" y="-138.8" font-family="Arial" font-size="9.00">select_shipping</text>
</g>
<!-- place_74c70e83a9f58141487d73749193bf049153a472&#45;&gt;transition_ac3478d69a3c81fa62e60f5c3696165a4e5e6ac4 -->
<g id="edge11" class="edge">
<title>place_74c70e83a9f58141487d73749193bf049153a472&#45;&gt;transition_ac3478d69a3c81fa62e60f5c3696165a4e5e6ac4</title>
<path fill="none" stroke="#333333" d="M71.81,-176.53C111.07,-169.23 175.02,-157.35 218.02,-149.35"/>
<polygon fill="#333333" stroke="#333333" points="218.56,-151.03 223.16,-148.4 217.92,-147.59 218.56,-151.03"/>
</g>
<!-- place_b503304f0fe3229614f5e34f3e48fefa4dc7f5c2 -->
<g id="node3" class="node">
<title>place_b503304f0fe3229614f5e34f3e48fefa4dc7f5c2</title>
<ellipse fill="none" stroke="#333333" cx="748.35" cy="-193" rx="47.52" ry="47.52"/>
<text text-anchor="middle" x="748.35" y="-190.8" font-family="Arial" font-size="9.00">shipping_selected</text>
</g>
<!-- transition_b6589fc6ab0dc82cf12099d1c2d40ab994e8410c -->
<g id="node8" class="node">
<title>transition_b6589fc6ab0dc82cf12099d1c2d40ab994e8410c</title>
<polygon fill="none" stroke="#333333" points="908.35,-100 836.35,-100 836.35,-28 908.35,-28 908.35,-100"/>
<text text-anchor="middle" x="872.35" y="-61.8" font-family="Arial" font-size="9.00">address</text>
</g>
<!-- place_b503304f0fe3229614f5e34f3e48fefa4dc7f5c2&#45;&gt;transition_b6589fc6ab0dc82cf12099d1c2d40ab994e8410c -->
<g id="edge1" class="edge">
<title>place_b503304f0fe3229614f5e34f3e48fefa4dc7f5c2&#45;&gt;transition_b6589fc6ab0dc82cf12099d1c2d40ab994e8410c</title>
<path fill="none" stroke="#333333" d="M781.72,-158.77C797.61,-141.98 816.84,-121.64 833.41,-104.12"/>
<polygon fill="#333333" stroke="#333333" points="834.95,-105.03 837.12,-100.2 832.41,-102.63 834.95,-105.03"/>
</g>
<!-- transition_c1dfd96eea8cc2b62785275bca38ac261256e278 -->
<g id="node14" class="node">
<title>transition_c1dfd96eea8cc2b62785275bca38ac261256e278</title>
<polygon fill="none" stroke="#333333" points="912.85,-199.5 831.85,-199.5 831.85,-118.5 912.85,-118.5 912.85,-199.5"/>
<text text-anchor="middle" x="872.35" y="-156.8" font-family="Arial" font-size="9.00">select_shipping</text>
</g>
<!-- place_b503304f0fe3229614f5e34f3e48fefa4dc7f5c2&#45;&gt;transition_c1dfd96eea8cc2b62785275bca38ac261256e278 -->
<g id="edge13" class="edge">
<title>place_b503304f0fe3229614f5e34f3e48fefa4dc7f5c2&#45;&gt;transition_c1dfd96eea8cc2b62785275bca38ac261256e278</title>
<path fill="none" stroke="#333333" d="M792.36,-174.53C803.43,-171.11 815.36,-167.77 826.52,-164.96"/>
<polygon fill="#333333" stroke="#333333" points="827.15,-166.61 831.58,-163.71 826.31,-163.21 827.15,-166.61"/>
</g>
<!-- transition_0ade7c2cf97f75d009975f4d720d1fa6c19f4897 -->
<g id="node17" class="node">
<title>transition_0ade7c2cf97f75d009975f4d720d1fa6c19f4897</title>
<polygon fill="none" stroke="#333333" points="909.35,-430 835.35,-430 835.35,-356 909.35,-356 909.35,-430"/>
<text text-anchor="middle" x="872.35" y="-390.8" font-family="Arial" font-size="9.00">skip_payment</text>
</g>
<!-- place_b503304f0fe3229614f5e34f3e48fefa4dc7f5c2&#45;&gt;transition_0ade7c2cf97f75d009975f4d720d1fa6c19f4897 -->
<g id="edge19" class="edge">
<title>place_b503304f0fe3229614f5e34f3e48fefa4dc7f5c2&#45;&gt;transition_0ade7c2cf97f75d009975f4d720d1fa6c19f4897</title>
<path fill="none" stroke="#333333" d="M769.21,-235.95C784.63,-267.67 807.43,-311.34 831.85,-347 832.93,-348.57 834.05,-350.14 835.2,-351.72"/>
<polygon fill="#333333" stroke="#333333" points="833.92,-352.93 838.32,-355.88 836.72,-350.83 833.92,-352.93"/>
</g>
<!-- transition_bd307a3ec329e10a2cff8fb87480823da114f8f4 -->
<g id="node21" class="node">
<title>transition_bd307a3ec329e10a2cff8fb87480823da114f8f4</title>
<polygon fill="none" stroke="#333333" points="912.85,-337.5 831.85,-337.5 831.85,-256.5 912.85,-256.5 912.85,-337.5"/>
<text text-anchor="middle" x="872.35" y="-294.8" font-family="Arial" font-size="9.00">select_payment</text>
</g>
<!-- place_b503304f0fe3229614f5e34f3e48fefa4dc7f5c2&#45;&gt;transition_bd307a3ec329e10a2cff8fb87480823da114f8f4 -->
<g id="edge27" class="edge">
<title>place_b503304f0fe3229614f5e34f3e48fefa4dc7f5c2&#45;&gt;transition_bd307a3ec329e10a2cff8fb87480823da114f8f4</title>
<path fill="none" stroke="#333333" d="M784.96,-223.36C798.34,-234.76 813.69,-247.85 827.71,-259.8"/>
<polygon fill="#333333" stroke="#333333" points="826.69,-261.22 831.63,-263.14 828.96,-258.56 826.69,-261.22"/>
</g>
<!-- place_d32f196982e3fb5b5b2c59e1c5e0d888fb0fbac0 -->
<g id="node4" class="node">
<title>place_d32f196982e3fb5b5b2c59e1c5e0d888fb0fbac0</title>
<ellipse fill="none" stroke="#333333" cx="263.96" cy="-309" rx="45.92" ry="45.92"/>
<text text-anchor="middle" x="263.96" y="-306.8" font-family="Arial" font-size="9.00">shipping_skipped</text>
</g>
<!-- transition_356a192b7913b04c54574d18c28d46e6395428ab -->
<g id="node9" class="node">
<title>transition_356a192b7913b04c54574d18c28d46e6395428ab</title>
<polygon fill="none" stroke="#333333" points="418.92,-444 346.92,-444 346.92,-372 418.92,-372 418.92,-444"/>
<text text-anchor="middle" x="382.92" y="-405.8" font-family="Arial" font-size="9.00">address</text>
</g>
<!-- place_d32f196982e3fb5b5b2c59e1c5e0d888fb0fbac0&#45;&gt;transition_356a192b7913b04c54574d18c28d46e6395428ab -->
<g id="edge3" class="edge">
<title>place_d32f196982e3fb5b5b2c59e1c5e0d888fb0fbac0&#45;&gt;transition_356a192b7913b04c54574d18c28d46e6395428ab</title>
<path fill="none" stroke="#333333" d="M299.73,-338.44C313.28,-349.9 328.86,-363.09 342.79,-374.88"/>
<polygon fill="#333333" stroke="#333333" points="341.72,-376.27 346.67,-378.16 343.99,-373.6 341.72,-376.27"/>
</g>
<!-- transition_b1d5781111d84f7b3fe45a0852e59758cd7a87e5 -->
<g id="node18" class="node">
<title>transition_b1d5781111d84f7b3fe45a0852e59758cd7a87e5</title>
<polygon fill="none" stroke="#333333" points="419.92,-316 345.92,-316 345.92,-242 419.92,-242 419.92,-316"/>
<text text-anchor="middle" x="382.92" y="-276.8" font-family="Arial" font-size="9.00">skip_payment</text>
</g>
<!-- place_d32f196982e3fb5b5b2c59e1c5e0d888fb0fbac0&#45;&gt;transition_b1d5781111d84f7b3fe45a0852e59758cd7a87e5 -->
<g id="edge21" class="edge">
<title>place_d32f196982e3fb5b5b2c59e1c5e0d888fb0fbac0&#45;&gt;transition_b1d5781111d84f7b3fe45a0852e59758cd7a87e5</title>
<path fill="none" stroke="#333333" d="M308.84,-297.74C319.32,-295.06 330.46,-292.2 340.8,-289.55"/>
<polygon fill="#333333" stroke="#333333" points="341.4,-291.2 345.81,-288.26 340.53,-287.81 341.4,-291.2"/>
</g>
<!-- transition_7b52009b64fd0a2a49e6d8a939753077792b0554 -->
<g id="node20" class="node">
<title>transition_7b52009b64fd0a2a49e6d8a939753077792b0554</title>
<polygon fill="none" stroke="#333333" points="542.38,-494.5 461.38,-494.5 461.38,-413.5 542.38,-413.5 542.38,-494.5"/>
<text text-anchor="middle" x="501.88" y="-451.8" font-family="Arial" font-size="9.00">select_payment</text>
</g>
<!-- place_d32f196982e3fb5b5b2c59e1c5e0d888fb0fbac0&#45;&gt;transition_7b52009b64fd0a2a49e6d8a939753077792b0554 -->
<g id="edge25" class="edge">
<title>place_d32f196982e3fb5b5b2c59e1c5e0d888fb0fbac0&#45;&gt;transition_7b52009b64fd0a2a49e6d8a939753077792b0554</title>
<path fill="none" stroke="#333333" d="M309.09,-318.04C341.67,-326.16 386.06,-340.35 419.92,-363 438.39,-375.36 455.34,-392.9 468.9,-409.3"/>
<polygon fill="#333333" stroke="#333333" points="467.76,-410.67 472.28,-413.44 470.48,-408.45 467.76,-410.67"/>
</g>
<!-- place_6f3aef6e8830c76c40e1ef96ea03bbd9ae20edc4 -->
<g id="node5" class="node">
<title>place_6f3aef6e8830c76c40e1ef96ea03bbd9ae20edc4</title>
<ellipse fill="none" stroke="#333333" cx="996.36" cy="-304" rx="47.52" ry="47.52"/>
<text text-anchor="middle" x="996.36" y="-301.8" font-family="Arial" font-size="9.00">payment_selected</text>
</g>
<!-- transition_da4b9237bacccdf19c0760cab7aec4a8359010b0 -->
<g id="node10" class="node">
<title>transition_da4b9237bacccdf19c0760cab7aec4a8359010b0</title>
<polygon fill="none" stroke="#333333" points="1156.37,-91 1084.37,-91 1084.37,-19 1156.37,-19 1156.37,-91"/>
<text text-anchor="middle" x="1120.37" y="-52.8" font-family="Arial" font-size="9.00">address</text>
</g>
<!-- place_6f3aef6e8830c76c40e1ef96ea03bbd9ae20edc4&#45;&gt;transition_da4b9237bacccdf19c0760cab7aec4a8359010b0 -->
<g id="edge5" class="edge">
<title>place_6f3aef6e8830c76c40e1ef96ea03bbd9ae20edc4&#45;&gt;transition_da4b9237bacccdf19c0760cab7aec4a8359010b0</title>
<path fill="none" stroke="#333333" d="M1018.2,-261.48C1040.9,-215.15 1076.96,-141.55 1099.34,-95.88"/>
<polygon fill="#333333" stroke="#333333" points="1100.97,-96.54 1101.6,-91.28 1097.83,-95 1100.97,-96.54"/>
</g>
<!-- transition_902ba3cda1883801594b6e1b452790cc53948fda -->
<g id="node15" class="node">
<title>transition_902ba3cda1883801594b6e1b452790cc53948fda</title>
<polygon fill="none" stroke="#333333" points="1160.87,-245.5 1079.87,-245.5 1079.87,-164.5 1160.87,-164.5 1160.87,-245.5"/>
<text text-anchor="middle" x="1120.37" y="-202.8" font-family="Arial" font-size="9.00">select_shipping</text>
</g>
<!-- place_6f3aef6e8830c76c40e1ef96ea03bbd9ae20edc4&#45;&gt;transition_902ba3cda1883801594b6e1b452790cc53948fda -->
<g id="edge15" class="edge">
<title>place_6f3aef6e8830c76c40e1ef96ea03bbd9ae20edc4&#45;&gt;transition_902ba3cda1883801594b6e1b452790cc53948fda</title>
<path fill="none" stroke="#333333" d="M1033.97,-274.3C1047.07,-263.66 1061.98,-251.57 1075.62,-240.5"/>
<polygon fill="#333333" stroke="#333333" points="1077.03,-241.61 1079.81,-237.1 1074.83,-238.89 1077.03,-241.61"/>
</g>
<!-- transition_17ba0791499db908433b80f37c5fbc89b870084b -->
<g id="node19" class="node">
<title>transition_17ba0791499db908433b80f37c5fbc89b870084b</title>
<polygon fill="none" stroke="#333333" points="1160.87,-344.5 1079.87,-344.5 1079.87,-263.5 1160.87,-263.5 1160.87,-344.5"/>
<text text-anchor="middle" x="1120.37" y="-301.8" font-family="Arial" font-size="9.00">select_payment</text>
</g>
<!-- place_6f3aef6e8830c76c40e1ef96ea03bbd9ae20edc4&#45;&gt;transition_17ba0791499db908433b80f37c5fbc89b870084b -->
<g id="edge23" class="edge">
<title>place_6f3aef6e8830c76c40e1ef96ea03bbd9ae20edc4&#45;&gt;transition_17ba0791499db908433b80f37c5fbc89b870084b</title>
<path fill="none" stroke="#333333" d="M1043.49,-297.43C1053.6,-297.18 1064.3,-297.19 1074.37,-297.46"/>
<polygon fill="#333333" stroke="#333333" points="1074.52,-299.22 1079.57,-297.63 1074.63,-295.72 1074.52,-299.22"/>
</g>
<!-- transition_fa35e192121eabf3dabf9f5ea6abdbcbc107ac3b -->
<g id="node22" class="node">
<title>transition_fa35e192121eabf3dabf9f5ea6abdbcbc107ac3b</title>
<polygon fill="none" stroke="#333333" points="1156.37,-435 1084.37,-435 1084.37,-363 1156.37,-363 1156.37,-435"/>
<text text-anchor="middle" x="1120.37" y="-396.8" font-family="Arial" font-size="9.00">complete</text>
</g>
<!-- place_6f3aef6e8830c76c40e1ef96ea03bbd9ae20edc4&#45;&gt;transition_fa35e192121eabf3dabf9f5ea6abdbcbc107ac3b -->
<g id="edge29" class="edge">
<title>place_6f3aef6e8830c76c40e1ef96ea03bbd9ae20edc4&#45;&gt;transition_fa35e192121eabf3dabf9f5ea6abdbcbc107ac3b</title>
<path fill="none" stroke="#333333" d="M1034.3,-332.76C1048.79,-344.04 1065.44,-357 1080.14,-368.45"/>
<polygon fill="#333333" stroke="#333333" points="1079.21,-369.95 1084.23,-371.64 1081.36,-367.19 1079.21,-369.95"/>
</g>
<!-- place_187955bd49ccea4edc51b03b9f2895d2b49100ce -->
<g id="node6" class="node">
<title>place_187955bd49ccea4edc51b03b9f2895d2b49100ce</title>
<ellipse fill="none" stroke="#333333" cx="501.88" cy="-304" rx="45.92" ry="45.92"/>
<text text-anchor="middle" x="501.88" y="-301.8" font-family="Arial" font-size="9.00">payment_skipped</text>
</g>
<!-- transition_77de68daecd823babbb58edb1c8e14d7106e83bb -->
<g id="node11" class="node">
<title>transition_77de68daecd823babbb58edb1c8e14d7106e83bb</title>
<polygon fill="none" stroke="#333333" points="660.34,-245 588.34,-245 588.34,-173 660.34,-173 660.34,-245"/>
<text text-anchor="middle" x="624.34" y="-206.8" font-family="Arial" font-size="9.00">address</text>
</g>
<!-- place_187955bd49ccea4edc51b03b9f2895d2b49100ce&#45;&gt;transition_77de68daecd823babbb58edb1c8e14d7106e83bb -->
<g id="edge7" class="edge">
<title>place_187955bd49ccea4edc51b03b9f2895d2b49100ce&#45;&gt;transition_77de68daecd823babbb58edb1c8e14d7106e83bb</title>
<path fill="none" stroke="#333333" d="M538.37,-276.01C552.7,-264.7 569.3,-251.61 584.01,-240.02"/>
<polygon fill="#333333" stroke="#333333" points="585.26,-241.26 588.1,-236.79 583.09,-238.51 585.26,-241.26"/>
</g>
<!-- transition_fe5dbbcea5ce7e2988b8c69bcfdfde8904aabc1f -->
<g id="node16" class="node">
<title>transition_fe5dbbcea5ce7e2988b8c69bcfdfde8904aabc1f</title>
<polygon fill="none" stroke="#333333" points="664.84,-344.5 583.84,-344.5 583.84,-263.5 664.84,-263.5 664.84,-344.5"/>
<text text-anchor="middle" x="624.34" y="-301.8" font-family="Arial" font-size="9.00">select_shipping</text>
</g>
<!-- place_187955bd49ccea4edc51b03b9f2895d2b49100ce&#45;&gt;transition_fe5dbbcea5ce7e2988b8c69bcfdfde8904aabc1f -->
<g id="edge17" class="edge">
<title>place_187955bd49ccea4edc51b03b9f2895d2b49100ce&#45;&gt;transition_fe5dbbcea5ce7e2988b8c69bcfdfde8904aabc1f</title>
<path fill="none" stroke="#333333" d="M548.08,-304C558.08,-304 568.68,-304 578.66,-304"/>
<polygon fill="#333333" stroke="#333333" points="578.82,-305.75 583.82,-304 578.82,-302.25 578.82,-305.75"/>
</g>
<!-- transition_f1abd670358e036c31296e66b3b66c382ac00812 -->
<g id="node23" class="node">
<title>transition_f1abd670358e036c31296e66b3b66c382ac00812</title>
<polygon fill="none" stroke="#333333" points="784.35,-473 712.35,-473 712.35,-401 784.35,-401 784.35,-473"/>
<text text-anchor="middle" x="748.35" y="-434.8" font-family="Arial" font-size="9.00">complete</text>
</g>
<!-- place_187955bd49ccea4edc51b03b9f2895d2b49100ce&#45;&gt;transition_f1abd670358e036c31296e66b3b66c382ac00812 -->
<g id="edge31" class="edge">
<title>place_187955bd49ccea4edc51b03b9f2895d2b49100ce&#45;&gt;transition_f1abd670358e036c31296e66b3b66c382ac00812</title>
<path fill="none" stroke="#333333" d="M530.78,-340C545.09,-356.35 563.73,-374.74 583.84,-387 622.25,-410.41 672.49,-423.63 707.08,-430.51"/>
<polygon fill="#333333" stroke="#333333" points="706.83,-432.25 712.07,-431.48 707.5,-428.81 706.83,-432.25"/>
</g>
<!-- place_231e564db4cdb44a6545583a8d460edc7f9f97ca -->
<g id="node7" class="node">
<title>place_231e564db4cdb44a6545583a8d460edc7f9f97ca</title>
<ellipse fill="none" stroke="#333333" cx="1232.87" cy="-431" rx="36" ry="36"/>
<text text-anchor="middle" x="1232.87" y="-428.8" font-family="Arial" font-size="9.00">completed</text>
</g>
<!-- transition_b6589fc6ab0dc82cf12099d1c2d40ab994e8410c&#45;&gt;place_74c70e83a9f58141487d73749193bf049153a472 -->
<g id="edge2" class="edge">
<title>transition_b6589fc6ab0dc82cf12099d1c2d40ab994e8410c&#45;&gt;place_74c70e83a9f58141487d73749193bf049153a472</title>
<path fill="none" stroke="#333333" d="M836.32,-65.16C788.61,-66.64 700.53,-69 625.34,-69 262.96,-69 262.96,-69 262.96,-69 185.92,-69 108.41,-122.48 67.21,-156.18"/>
<polygon fill="#333333" stroke="#333333" points="66.08,-154.85 63.34,-159.38 68.31,-157.54 66.08,-154.85"/>
</g>
<!-- transition_356a192b7913b04c54574d18c28d46e6395428ab&#45;&gt;place_74c70e83a9f58141487d73749193bf049153a472 -->
<g id="edge4" class="edge">
<title>transition_356a192b7913b04c54574d18c28d46e6395428ab&#45;&gt;place_74c70e83a9f58141487d73749193bf049153a472</title>
<path fill="none" stroke="#333333" d="M346.88,-410.43C290.16,-412.44 177.6,-408.22 108,-351 69.26,-319.15 51.28,-262.4 43.2,-223.76"/>
<polygon fill="#333333" stroke="#333333" points="44.87,-223.22 42.17,-218.67 41.44,-223.91 44.87,-223.22"/>
</g>
<!-- transition_da4b9237bacccdf19c0760cab7aec4a8359010b0&#45;&gt;place_74c70e83a9f58141487d73749193bf049153a472 -->
<g id="edge6" class="edge">
<title>transition_da4b9237bacccdf19c0760cab7aec4a8359010b0&#45;&gt;place_74c70e83a9f58141487d73749193bf049153a472</title>
<path fill="none" stroke="#333333" d="M1084.07,-41.97C1036.79,-25.7 949.94,0 873.35,0 262.96,0 262.96,0 262.96,0 184.41,0 166.12,-32.15 108,-85 86.93,-104.16 88.75,-114.97 72,-138 68.88,-142.29 65.53,-146.76 62.19,-151.14"/>
<polygon fill="#333333" stroke="#333333" points="60.78,-150.09 59.13,-155.13 63.56,-152.23 60.78,-150.09"/>
</g>
<!-- transition_77de68daecd823babbb58edb1c8e14d7106e83bb&#45;&gt;place_74c70e83a9f58141487d73749193bf049153a472 -->
<g id="edge8" class="edge">
<title>transition_77de68daecd823babbb58edb1c8e14d7106e83bb&#45;&gt;place_74c70e83a9f58141487d73749193bf049153a472</title>
<path fill="none" stroke="#333333" d="M588.05,-209.24C541.34,-209.54 456.45,-210 383.92,-210 262.96,-210 262.96,-210 262.96,-210 197.34,-210 121.75,-198.63 76.75,-190.65"/>
<polygon fill="#333333" stroke="#333333" points="76.91,-188.9 71.68,-189.74 76.3,-192.35 76.91,-188.9"/>
</g>
<!-- transition_1b6453892473a467d07372d45eb05abc2031647a&#45;&gt;place_d32f196982e3fb5b5b2c59e1c5e0d888fb0fbac0 -->
<g id="edge10" class="edge">
<title>transition_1b6453892473a467d07372d45eb05abc2031647a&#45;&gt;place_d32f196982e3fb5b5b2c59e1c5e0d888fb0fbac0</title>
<path fill="none" stroke="#333333" d="M182.05,-306.23C191.74,-306.56 202.4,-306.93 212.71,-307.28"/>
<polygon fill="#333333" stroke="#333333" points="212.68,-309.03 217.73,-307.45 212.8,-305.53 212.68,-309.03"/>
</g>
<!-- transition_ac3478d69a3c81fa62e60f5c3696165a4e5e6ac4&#45;&gt;place_b503304f0fe3229614f5e34f3e48fefa4dc7f5c2 -->
<g id="edge12" class="edge">
<title>transition_ac3478d69a3c81fa62e60f5c3696165a4e5e6ac4&#45;&gt;place_b503304f0fe3229614f5e34f3e48fefa4dc7f5c2</title>
<path fill="none" stroke="#333333" d="M304.59,-139.64C376.94,-137.95 534.95,-137.98 664.84,-164 676.07,-166.25 687.85,-169.69 698.87,-173.43"/>
<polygon fill="#333333" stroke="#333333" points="698.58,-175.18 703.88,-175.16 699.73,-171.87 698.58,-175.18"/>
</g>
<!-- transition_c1dfd96eea8cc2b62785275bca38ac261256e278&#45;&gt;place_b503304f0fe3229614f5e34f3e48fefa4dc7f5c2 -->
<g id="edge14" class="edge">
<title>transition_c1dfd96eea8cc2b62785275bca38ac261256e278&#45;&gt;place_b503304f0fe3229614f5e34f3e48fefa4dc7f5c2</title>
<path fill="none" stroke="#333333" d="M831.55,-176.47C821.65,-179.59 810.89,-182.69 800.53,-185.41"/>
<polygon fill="#333333" stroke="#333333" points="799.88,-183.77 795.47,-186.71 800.75,-187.16 799.88,-183.77"/>
</g>
<!-- transition_902ba3cda1883801594b6e1b452790cc53948fda&#45;&gt;place_b503304f0fe3229614f5e34f3e48fefa4dc7f5c2 -->
<g id="edge16" class="edge">
<title>transition_902ba3cda1883801594b6e1b452790cc53948fda&#45;&gt;place_b503304f0fe3229614f5e34f3e48fefa4dc7f5c2</title>
<path fill="none" stroke="#333333" d="M1079.73,-208.29C1024.17,-212.27 920.06,-217.47 831.85,-209 821.49,-208 810.5,-206.32 800.03,-204.41"/>
<polygon fill="#333333" stroke="#333333" points="800.18,-202.66 794.94,-203.46 799.54,-206.1 800.18,-202.66"/>
</g>
<!-- transition_fe5dbbcea5ce7e2988b8c69bcfdfde8904aabc1f&#45;&gt;place_b503304f0fe3229614f5e34f3e48fefa4dc7f5c2 -->
<g id="edge18" class="edge">
<title>transition_fe5dbbcea5ce7e2988b8c69bcfdfde8904aabc1f&#45;&gt;place_b503304f0fe3229614f5e34f3e48fefa4dc7f5c2</title>
<path fill="none" stroke="#333333" d="M664.95,-267.96C678.94,-255.23 694.65,-240.94 708.58,-228.27"/>
<polygon fill="#333333" stroke="#333333" points="709.93,-229.4 712.45,-224.75 707.58,-226.82 709.93,-229.4"/>
</g>
<!-- transition_0ade7c2cf97f75d009975f4d720d1fa6c19f4897&#45;&gt;place_187955bd49ccea4edc51b03b9f2895d2b49100ce -->
<g id="edge20" class="edge">
<title>transition_0ade7c2cf97f75d009975f4d720d1fa6c19f4897&#45;&gt;place_187955bd49ccea4edc51b03b9f2895d2b49100ce</title>
<path fill="none" stroke="#333333" d="M835.26,-392.87C779.65,-391.63 670.38,-385.01 583.84,-354 570.13,-349.09 556.25,-341.63 543.96,-333.96"/>
<polygon fill="#333333" stroke="#333333" points="544.67,-332.33 539.51,-331.13 542.79,-335.29 544.67,-332.33"/>
</g>
<!-- transition_b1d5781111d84f7b3fe45a0852e59758cd7a87e5&#45;&gt;place_187955bd49ccea4edc51b03b9f2895d2b49100ce -->
<g id="edge22" class="edge">
<title>transition_b1d5781111d84f7b3fe45a0852e59758cd7a87e5&#45;&gt;place_187955bd49ccea4edc51b03b9f2895d2b49100ce</title>
<path fill="none" stroke="#333333" d="M419.96,-286.7C429.89,-288.83 440.82,-291.16 451.36,-293.42"/>
<polygon fill="#333333" stroke="#333333" points="451.24,-295.18 456.5,-294.51 451.97,-291.76 451.24,-295.18"/>
</g>
<!-- transition_17ba0791499db908433b80f37c5fbc89b870084b&#45;&gt;place_6f3aef6e8830c76c40e1ef96ea03bbd9ae20edc4 -->
<g id="edge24" class="edge">
<title>transition_17ba0791499db908433b80f37c5fbc89b870084b&#45;&gt;place_6f3aef6e8830c76c40e1ef96ea03bbd9ae20edc4</title>
<path fill="none" stroke="#333333" d="M1079.57,-310.37C1069.67,-310.74 1058.91,-310.84 1048.54,-310.67"/>
<polygon fill="#333333" stroke="#333333" points="1048.52,-308.92 1043.49,-310.57 1048.45,-312.42 1048.52,-308.92"/>
</g>
<!-- transition_7b52009b64fd0a2a49e6d8a939753077792b0554&#45;&gt;place_6f3aef6e8830c76c40e1ef96ea03bbd9ae20edc4 -->
<g id="edge26" class="edge">
<title>transition_7b52009b64fd0a2a49e6d8a939753077792b0554&#45;&gt;place_6f3aef6e8830c76c40e1ef96ea03bbd9ae20edc4</title>
<path fill="none" stroke="#333333" d="M542.48,-464.54C599.05,-478.06 706.06,-497.98 795.85,-482 850.4,-472.29 870.03,-474.14 912.85,-439 940.77,-416.09 961.77,-381.11 975.6,-352.5"/>
<polygon fill="#333333" stroke="#333333" points="977.19,-353.23 977.76,-347.96 974.03,-351.72 977.19,-353.23"/>
</g>
<!-- transition_bd307a3ec329e10a2cff8fb87480823da114f8f4&#45;&gt;place_6f3aef6e8830c76c40e1ef96ea03bbd9ae20edc4 -->
<g id="edge28" class="edge">
<title>transition_bd307a3ec329e10a2cff8fb87480823da114f8f4&#45;&gt;place_6f3aef6e8830c76c40e1ef96ea03bbd9ae20edc4</title>
<path fill="none" stroke="#333333" d="M912.97,-299.27C922.77,-299.84 933.43,-300.45 943.71,-301.04"/>
<polygon fill="#333333" stroke="#333333" points="943.64,-302.79 948.73,-301.32 943.84,-299.29 943.64,-302.79"/>
</g>
<!-- transition_fa35e192121eabf3dabf9f5ea6abdbcbc107ac3b&#45;&gt;place_231e564db4cdb44a6545583a8d460edc7f9f97ca -->
<g id="edge30" class="edge">
<title>transition_fa35e192121eabf3dabf9f5ea6abdbcbc107ac3b&#45;&gt;place_231e564db4cdb44a6545583a8d460edc7f9f97ca</title>
<path fill="none" stroke="#333333" d="M1156.64,-409.21C1168.24,-412.57 1181.21,-416.33 1193.06,-419.76"/>
<polygon fill="#333333" stroke="#333333" points="1192.78,-421.5 1198.07,-421.21 1193.75,-418.14 1192.78,-421.5"/>
</g>
<!-- transition_f1abd670358e036c31296e66b3b66c382ac00812&#45;&gt;place_231e564db4cdb44a6545583a8d460edc7f9f97ca -->
<g id="edge32" class="edge">
<title>transition_f1abd670358e036c31296e66b3b66c382ac00812&#45;&gt;place_231e564db4cdb44a6545583a8d460edc7f9f97ca</title>
<path fill="none" stroke="#333333" d="M784.68,-437.89C799.28,-438.25 816.38,-438.66 831.85,-439 978.07,-442.25 1015.22,-457.22 1160.87,-444 1171.17,-443.07 1182.2,-441.38 1192.43,-439.53"/>
<polygon fill="#333333" stroke="#333333" points="1192.78,-441.25 1197.38,-438.61 1192.14,-437.81 1192.78,-441.25"/>
</g>
</g>
</svg>
