<?xml version="1.0" encoding="UTF-8" standalone="no"?>
<!DOCTYPE svg PUBLIC "-//W3C//DTD SVG 1.1//EN"
 "http://www.w3.org/Graphics/SVG/1.1/DTD/svg11.dtd">
<!-- Generated by graphviz version 2.43.0 (0)
 -->
<!-- Title: workflow Pages: 1 -->
<svg width="1493pt" height="503pt"
 viewBox="0.00 0.00 1492.87 502.50" xmlns="http://www.w3.org/2000/svg" xmlns:xlink="http://www.w3.org/1999/xlink">
<g id="graph0" class="graph" transform="scale(1 1) rotate(0) translate(4 498.5)">
<title>workflow</title>
<polygon fill="white" stroke="transparent" points="-4,4 -4,-498.5 1488.87,-498.5 1488.87,4 -4,4"/>
<!-- place_8bfb4e1aa590eab8f08f837b97acf5803a5737ed -->
<g id="node1" class="node">
<title>place_8bfb4e1aa590eab8f08f837b97acf5803a5737ed</title>
<ellipse fill="lightblue" stroke="#333333" cx="36" cy="-247" rx="36" ry="36"/>
<text text-anchor="middle" x="36" y="-244.8" font-family="Arial" font-size="9.00">cart</text>
</g>
<!-- transition_b6589fc6ab0dc82cf12099d1c2d40ab994e8410c -->
<g id="node8" class="node">
<title>transition_b6589fc6ab0dc82cf12099d1c2d40ab994e8410c</title>
<polygon fill="none" stroke="#333333" points="180,-283 108,-283 108,-211 180,-211 180,-283"/>
<text text-anchor="middle" x="144" y="-244.8" font-family="Arial" font-size="9.00">address</text>
</g>
<!-- place_8bfb4e1aa590eab8f08f837b97acf5803a5737ed&#45;&gt;transition_b6589fc6ab0dc82cf12099d1c2d40ab994e8410c -->
<g id="edge1" class="edge">
<title>place_8bfb4e1aa590eab8f08f837b97acf5803a5737ed&#45;&gt;transition_b6589fc6ab0dc82cf12099d1c2d40ab994e8410c</title>
<path fill="none" stroke="#333333" d="M72,-247C81.76,-247 92.44,-247 102.49,-247"/>
<polygon fill="#333333" stroke="#333333" points="102.67,-248.75 107.67,-247 102.67,-245.25 102.67,-248.75"/>
</g>
<!-- place_74c70e83a9f58141487d73749193bf049153a472 -->
<g id="node2" class="node">
<title>place_74c70e83a9f58141487d73749193bf049153a472</title>
<ellipse fill="none" stroke="#333333" cx="252" cy="-247" rx="36" ry="36"/>
<text text-anchor="middle" x="252" y="-244.8" font-family="Arial" font-size="9.00">addressed</text>
</g>
<!-- transition_356a192b7913b04c54574d18c28d46e6395428ab -->
<g id="node9" class="node">
<title>transition_356a192b7913b04c54574d18c28d46e6395428ab</title>
<polygon fill="none" stroke="#333333" points="397,-458 325,-458 325,-386 397,-386 397,-458"/>
<text text-anchor="middle" x="361" y="-419.8" font-family="Arial" font-size="9.00">address</text>
</g>
<!-- place_74c70e83a9f58141487d73749193bf049153a472&#45;&gt;transition_356a192b7913b04c54574d18c28d46e6395428ab -->
<g id="edge3" class="edge">
<title>place_74c70e83a9f58141487d73749193bf049153a472&#45;&gt;transition_356a192b7913b04c54574d18c28d46e6395428ab</title>
<path fill="none" stroke="#333333" d="M272.8,-276.64C286.5,-300.44 305.54,-334.22 324,-363 327.89,-369.07 332.24,-375.41 336.52,-381.63"/>
<polygon fill="#333333" stroke="#333333" points="335.19,-382.78 339.47,-385.9 338.07,-380.79 335.19,-382.78"/>
</g>
<!-- transition_c1dfd96eea8cc2b62785275bca38ac261256e278 -->
<g id="node14" class="node">
<title>transition_c1dfd96eea8cc2b62785275bca38ac261256e278</title>
<polygon fill="none" stroke="#333333" points="398,-317 324,-317 324,-243 398,-243 398,-317"/>
<text text-anchor="middle" x="361" y="-277.8" font-family="Arial" font-size="9.00">skip_shipping</text>
</g>
<!-- place_74c70e83a9f58141487d73749193bf049153a472&#45;&gt;transition_c1dfd96eea8cc2b62785275bca38ac261256e278 -->
<g id="edge13" class="edge">
<title>place_74c70e83a9f58141487d73749193bf049153a472&#45;&gt;transition_c1dfd96eea8cc2b62785275bca38ac261256e278</title>
<path fill="none" stroke="#333333" d="M286.56,-257.35C296.87,-260.53 308.34,-264.07 319.08,-267.38"/>
<polygon fill="#333333" stroke="#333333" points="318.67,-269.08 323.96,-268.89 319.7,-265.74 318.67,-269.08"/>
</g>
<!-- transition_902ba3cda1883801594b6e1b452790cc53948fda -->
<g id="node15" class="node">
<title>transition_902ba3cda1883801594b6e1b452790cc53948fda</title>
<polygon fill="none" stroke="#333333" points="520.46,-181.5 439.46,-181.5 439.46,-100.5 520.46,-100.5 520.46,-181.5"/>
<text text-anchor="middle" x="479.96" y="-138.8" font-family="Arial" font-size="9.00">select_shipping</text>
</g>
<!-- place_74c70e83a9f58141487d73749193bf049153a472&#45;&gt;transition_902ba3cda1883801594b6e1b452790cc53948fda -->
<g id="edge15" class="edge">
<title>place_74c70e83a9f58141487d73749193bf049153a472&#45;&gt;transition_902ba3cda1883801594b6e1b452790cc53948fda</title>
<path fill="none" stroke="#333333" d="M280.49,-224.48C293.19,-214.82 308.8,-203.95 324,-196 359.42,-177.47 402.44,-162.76 434.16,-153.23"/>
<polygon fill="#333333" stroke="#333333" points="434.86,-154.85 439.15,-151.75 433.86,-151.49 434.86,-154.85"/>
</g>
<!-- place_b503304f0fe3229614f5e34f3e48fefa4dc7f5c2 -->
<g id="node3" class="node">
<title>place_b503304f0fe3229614f5e34f3e48fefa4dc7f5c2</title>
<ellipse fill="none" stroke="#333333" cx="964.35" cy="-193" rx="47.52" ry="47.52"/>
<text text-anchor="middle" x="964.35" y="-190.8" font-family="Arial" font-size="9.00">shipping_selected</text>
</g>
<!-- transition_da4b9237bacccdf19c0760cab7aec4a8359010b0 -->
<g id="node10" class="node">
<title>transition_da4b9237bacccdf19c0760cab7aec4a8359010b0</title>
<polygon fill="none" stroke="#333333" points="1124.35,-100 1052.35,-100 1052.35,-28 1124.35,-28 1124.35,-100"/>
<text text-anchor="middle" x="1088.35" y="-61.8" font-family="Arial" font-size="9.00">address</text>
</g>
<!-- place_b503304f0fe3229614f5e34f3e48fefa4dc7f5c2&#45;&gt;transition_da4b9237bacccdf19c0760cab7aec4a8359010b0 -->
<g id="edge5" class="edge">
<title>place_b503304f0fe3229614f5e34f3e48fefa4dc7f5c2&#45;&gt;transition_da4b9237bacccdf19c0760cab7aec4a8359010b0</title>
<path fill="none" stroke="#333333" d="M997.72,-158.77C1013.61,-141.98 1032.84,-121.64 1049.41,-104.12"/>
<polygon fill="#333333" stroke="#333333" points="1050.95,-105.03 1053.12,-100.2 1048.41,-102.63 1050.95,-105.03"/>
</g>
<!-- transition_fe5dbbcea5ce7e2988b8c69bcfdfde8904aabc1f -->
<g id="node16" class="node">
<title>transition_fe5dbbcea5ce7e2988b8c69bcfdfde8904aabc1f</title>
<polygon fill="none" stroke="#333333" points="1128.85,-199.5 1047.85,-199.5 1047.85,-118.5 1128.85,-118.5 1128.85,-199.5"/>
<text text-anchor="middle" x="1088.35" y="-156.8" font-family="Arial" font-size="9.00">select_shipping</text>
</g>
<!-- place_b503304f0fe3229614f5e34f3e48fefa4dc7f5c2&#45;&gt;transition_fe5dbbcea5ce7e2988b8c69bcfdfde8904aabc1f -->
<g id="edge17" class="edge">
<title>place_b503304f0fe3229614f5e34f3e48fefa4dc7f5c2&#45;&gt;transition_fe5dbbcea5ce7e2988b8c69bcfdfde8904aabc1f</title>
<path fill="none" stroke="#333333" d="M1008.36,-174.53C1019.43,-171.11 1031.36,-167.77 1042.52,-164.96"/>
<polygon fill="#333333" stroke="#333333" points="1043.15,-166.61 1047.58,-163.71 1042.31,-163.21 1043.15,-166.61"/>
</g>
<!-- transition_17ba0791499db908433b80f37c5fbc89b870084b -->
<g id="node19" class="node">
<title>transition_17ba0791499db908433b80f37c5fbc89b870084b</title>
<polygon fill="none" stroke="#333333" points="1125.35,-430 1051.35,-430 1051.35,-356 1125.35,-356 1125.35,-430"/>
<text text-anchor="middle" x="1088.35" y="-390.8" font-family="Arial" font-size="9.00">skip_payment</text>
</g>
<!-- place_b503304f0fe3229614f5e34f3e48fefa4dc7f5c2&#45;&gt;transition_17ba0791499db908433b80f37c5fbc89b870084b -->
<g id="edge23" class="edge">
<title>place_b503304f0fe3229614f5e34f3e48fefa4dc7f5c2&#45;&gt;transition_17ba0791499db908433b80f37c5fbc89b870084b</title>
<path fill="none" stroke="#333333" d="M985.21,-235.95C1000.63,-267.67 1023.43,-311.34 1047.85,-347 1048.93,-348.57 1050.05,-350.14 1051.2,-351.72"/>
<polygon fill="#333333" stroke="#333333" points="1049.92,-352.93 1054.32,-355.88 1052.72,-350.83 1049.92,-352.93"/>
</g>
<!-- transition_f1abd670358e036c31296e66b3b66c382ac00812 -->
<g id="node23" class="node">
<title>transition_f1abd670358e036c31296e66b3b66c382ac00812</title>
<polygon fill="none" stroke="#333333" points="1128.85,-337.5 1047.85,-337.5 1047.85,-256.5 1128.85,-256.5 1128.85,-337.5"/>
<text text-anchor="middle" x="1088.35" y="-294.8" font-family="Arial" font-size="9.00">select_payment</text>
</g>
<!-- place_b503304f0fe3229614f5e34f3e48fefa4dc7f5c2&#45;&gt;transition_f1abd670358e036c31296e66b3b66c382ac00812 -->
<g id="edge31" class="edge">
<title>place_b503304f0fe3229614f5e34f3e48fefa4dc7f5c2&#45;&gt;transition_f1abd670358e036c31296e66b3b66c382ac00812</title>
<path fill="none" stroke="#333333" d="M1000.96,-223.36C1014.34,-234.76 1029.69,-247.85 1043.71,-259.8"/>
<polygon fill="#333333" stroke="#333333" points="1042.69,-261.22 1047.63,-263.14 1044.96,-258.56 1042.69,-261.22"/>
</g>
<!-- place_d32f196982e3fb5b5b2c59e1c5e0d888fb0fbac0 -->
<g id="node4" class="node">
<title>place_d32f196982e3fb5b5b2c59e1c5e0d888fb0fbac0</title>
<ellipse fill="none" stroke="#333333" cx="479.96" cy="-284" rx="45.92" ry="45.92"/>
<text text-anchor="middle" x="479.96" y="-281.8" font-family="Arial" font-size="9.00">shipping_skipped</text>
</g>
<!-- transition_77de68daecd823babbb58edb1c8e14d7106e83bb -->
<g id="node11" class="node">
<title>transition_77de68daecd823babbb58edb1c8e14d7106e83bb</title>
<polygon fill="none" stroke="#333333" points="634.92,-444 562.92,-444 562.92,-372 634.92,-372 634.92,-444"/>
<text text-anchor="middle" x="598.92" y="-405.8" font-family="Arial" font-size="9.00">address</text>
</g>
<!-- place_d32f196982e3fb5b5b2c59e1c5e0d888fb0fbac0&#45;&gt;transition_77de68daecd823babbb58edb1c8e14d7106e83bb -->
<g id="edge7" class="edge">
<title>place_d32f196982e3fb5b5b2c59e1c5e0d888fb0fbac0&#45;&gt;transition_77de68daecd823babbb58edb1c8e14d7106e83bb</title>
<path fill="none" stroke="#333333" d="M512.3,-317.23C527.02,-332.84 544.69,-351.57 560.14,-367.95"/>
<polygon fill="#333333" stroke="#333333" points="558.91,-369.19 563.61,-371.63 561.45,-366.79 558.91,-369.19"/>
</g>
<!-- transition_7b52009b64fd0a2a49e6d8a939753077792b0554 -->
<g id="node20" class="node">
<title>transition_7b52009b64fd0a2a49e6d8a939753077792b0554</title>
<polygon fill="none" stroke="#333333" points="635.92,-316 561.92,-316 561.92,-242 635.92,-242 635.92,-316"/>
<text text-anchor="middle" x="598.92" y="-276.8" font-family="Arial" font-size="9.00">skip_payment</text>
</g>
<!-- place_d32f196982e3fb5b5b2c59e1c5e0d888fb0fbac0&#45;&gt;transition_7b52009b64fd0a2a49e6d8a939753077792b0554 -->
<g id="edge25" class="edge">
<title>place_d32f196982e3fb5b5b2c59e1c5e0d888fb0fbac0&#45;&gt;transition_7b52009b64fd0a2a49e6d8a939753077792b0554</title>
<path fill="none" stroke="#333333" d="M526.18,-282.07C536.25,-281.64 546.88,-281.18 556.78,-280.76"/>
<polygon fill="#333333" stroke="#333333" points="556.96,-282.5 561.88,-280.54 556.81,-279.01 556.96,-282.5"/>
</g>
<!-- transition_fa35e192121eabf3dabf9f5ea6abdbcbc107ac3b -->
<g id="node22" class="node">
<title>transition_fa35e192121eabf3dabf9f5ea6abdbcbc107ac3b</title>
<polygon fill="none" stroke="#333333" points="758.38,-494.5 677.38,-494.5 677.38,-413.5 758.38,-413.5 758.38,-494.5"/>
<text text-anchor="middle" x="717.88" y="-451.8" font-family="Arial" font-size="9.00">select_payment</text>
</g>
<!-- place_d32f196982e3fb5b5b2c59e1c5e0d888fb0fbac0&#45;&gt;transition_fa35e192121eabf3dabf9f5ea6abdbcbc107ac3b -->
<g id="edge29" class="edge">
<title>place_d32f196982e3fb5b5b2c59e1c5e0d888fb0fbac0&#45;&gt;transition_fa35e192121eabf3dabf9f5ea6abdbcbc107ac3b</title>
<path fill="none" stroke="#333333" d="M521.24,-304.42C566.73,-327.5 634.65,-362.02 635.92,-363 653.04,-376.23 669.41,-393.42 682.9,-409.29"/>
<polygon fill="#333333" stroke="#333333" points="681.71,-410.59 686.26,-413.3 684.38,-408.34 681.71,-410.59"/>
</g>
<!-- place_6f3aef6e8830c76c40e1ef96ea03bbd9ae20edc4 -->
<g id="node5" class="node">
<title>place_6f3aef6e8830c76c40e1ef96ea03bbd9ae20edc4</title>
<ellipse fill="none" stroke="#333333" cx="1212.36" cy="-304" rx="47.52" ry="47.52"/>
<text text-anchor="middle" x="1212.36" y="-301.8" font-family="Arial" font-size="9.00">payment_selected</text>
</g>
<!-- transition_1b6453892473a467d07372d45eb05abc2031647a -->
<g id="node12" class="node">
<title>transition_1b6453892473a467d07372d45eb05abc2031647a</title>
<polygon fill="none" stroke="#333333" points="1372.37,-91 1300.37,-91 1300.37,-19 1372.37,-19 1372.37,-91"/>
<text text-anchor="middle" x="1336.37" y="-52.8" font-family="Arial" font-size="9.00">address</text>
</g>
<!-- place_6f3aef6e8830c76c40e1ef96ea03bbd9ae20edc4&#45;&gt;transition_1b6453892473a467d07372d45eb05abc2031647a -->
<g id="edge9" class="edge">
<title>place_6f3aef6e8830c76c40e1ef96ea03bbd9ae20edc4&#45;&gt;transition_1b6453892473a467d07372d45eb05abc2031647a</title>
<path fill="none" stroke="#333333" d="M1234.2,-261.48C1256.9,-215.15 1292.96,-141.55 1315.34,-95.88"/>
<polygon fill="#333333" stroke="#333333" points="1316.97,-96.54 1317.6,-91.28 1313.83,-95 1316.97,-96.54"/>
</g>
<!-- transition_0ade7c2cf97f75d009975f4d720d1fa6c19f4897 -->
<g id="node17" class="node">
<title>transition_0ade7c2cf97f75d009975f4d720d1fa6c19f4897</title>
<polygon fill="none" stroke="#333333" points="1376.87,-245.5 1295.87,-245.5 1295.87,-164.5 1376.87,-164.5 1376.87,-245.5"/>
<text text-anchor="middle" x="1336.37" y="-202.8" font-family="Arial" font-size="9.00">select_shipping</text>
</g>
<!-- place_6f3aef6e8830c76c40e1ef96ea03bbd9ae20edc4&#45;&gt;transition_0ade7c2cf97f75d009975f4d720d1fa6c19f4897 -->
<g id="edge19" class="edge">
<title>place_6f3aef6e8830c76c40e1ef96ea03bbd9ae20edc4&#45;&gt;transition_0ade7c2cf97f75d009975f4d720d1fa6c19f4897</title>
<path fill="none" stroke="#333333" d="M1249.97,-274.3C1263.07,-263.66 1277.98,-251.57 1291.62,-240.5"/>
<polygon fill="#333333" stroke="#333333" points="1293.03,-241.61 1295.81,-237.1 1290.83,-238.89 1293.03,-241.61"/>
</g>
<!-- transition_bd307a3ec329e10a2cff8fb87480823da114f8f4 -->
<g id="node21" class="node">
<title>transition_bd307a3ec329e10a2cff8fb87480823da114f8f4</title>
<polygon fill="none" stroke="#333333" points="1376.87,-344.5 1295.87,-344.5 1295.87,-263.5 1376.87,-263.5 1376.87,-344.5"/>
<text text-anchor="middle" x="1336.37" y="-301.8" font-family="Arial" font-size="9.00">select_payment</text>
</g>
<!-- place_6f3aef6e8830c76c40e1ef96ea03bbd9ae20edc4&#45;&gt;transition_bd307a3ec329e10a2cff8fb87480823da114f8f4 -->
<g id="edge27" class="edge">
<title>place_6f3aef6e8830c76c40e1ef96ea03bbd9ae20edc4&#45;&gt;transition_bd307a3ec329e10a2cff8fb87480823da114f8f4</title>
<path fill="none" stroke="#333333" d="M1259.49,-297.43C1269.6,-297.18 1280.3,-297.19 1290.37,-297.46"/>
<polygon fill="#333333" stroke="#333333" points="1290.52,-299.22 1295.57,-297.63 1290.63,-295.72 1290.52,-299.22"/>
</g>
<!-- transition_1574bddb75c78a6fd2251d61e2993b5146201319 -->
<g id="node24" class="node">
<title>transition_1574bddb75c78a6fd2251d61e2993b5146201319</title>
<polygon fill="none" stroke="#333333" points="1372.37,-435 1300.37,-435 1300.37,-363 1372.37,-363 1372.37,-435"/>
<text text-anchor="middle" x="1336.37" y="-396.8" font-family="Arial" font-size="9.00">complete</text>
</g>
<!-- place_6f3aef6e8830c76c40e1ef96ea03bbd9ae20edc4&#45;&gt;transition_1574bddb75c78a6fd2251d61e2993b5146201319 -->
<g id="edge33" class="edge">
<title>place_6f3aef6e8830c76c40e1ef96ea03bbd9ae20edc4&#45;&gt;transition_1574bddb75c78a6fd2251d61e2993b5146201319</title>
<path fill="none" stroke="#333333" d="M1250.3,-332.76C1264.79,-344.04 1281.44,-357 1296.14,-368.45"/>
<polygon fill="#333333" stroke="#333333" points="1295.21,-369.95 1300.23,-371.64 1297.36,-367.19 1295.21,-369.95"/>
</g>
<!-- place_187955bd49ccea4edc51b03b9f2895d2b49100ce -->
<g id="node6" class="node">
<title>place_187955bd49ccea4edc51b03b9f2895d2b49100ce</title>
<ellipse fill="none" stroke="#333333" cx="717.88" cy="-304" rx="45.92" ry="45.92"/>
<text text-anchor="middle" x="717.88" y="-301.8" font-family="Arial" font-size="9.00">payment_skipped</text>
</g>
<!-- transition_ac3478d69a3c81fa62e60f5c3696165a4e5e6ac4 -->
<g id="node13" class="node">
<title>transition_ac3478d69a3c81fa62e60f5c3696165a4e5e6ac4</title>
<polygon fill="none" stroke="#333333" points="876.34,-245 804.34,-245 804.34,-173 876.34,-173 876.34,-245"/>
<text text-anchor="middle" x="840.34" y="-206.8" font-family="Arial" font-size="9.00">address</text>
</g>
<!-- place_187955bd49ccea4edc51b03b9f2895d2b49100ce&#45;&gt;transition_ac3478d69a3c81fa62e60f5c3696165a4e5e6ac4 -->
<g id="edge11" class="edge">
<title>place_187955bd49ccea4edc51b03b9f2895d2b49100ce&#45;&gt;transition_ac3478d69a3c81fa62e60f5c3696165a4e5e6ac4</title>
<path fill="none" stroke="#333333" d="M754.37,-276.01C768.7,-264.7 785.3,-251.61 800.01,-240.02"/>
<polygon fill="#333333" stroke="#333333" points="801.26,-241.26 804.1,-236.79 799.09,-238.51 801.26,-241.26"/>
</g>
<!-- transition_b1d5781111d84f7b3fe45a0852e59758cd7a87e5 -->
<g id="node18" class="node">
<title>transition_b1d5781111d84f7b3fe45a0852e59758cd7a87e5</title>
<polygon fill="none" stroke="#333333" points="880.84,-344.5 799.84,-344.5 799.84,-263.5 880.84,-263.5 880.84,-344.5"/>
<text text-anchor="middle" x="840.34" y="-301.8" font-family="Arial" font-size="9.00">select_shipping</text>
</g>
<!-- place_187955bd49ccea4edc51b03b9f2895d2b49100ce&#45;&gt;transition_b1d5781111d84f7b3fe45a0852e59758cd7a87e5 -->
<g id="edge21" class="edge">
<title>place_187955bd49ccea4edc51b03b9f2895d2b49100ce&#45;&gt;transition_b1d5781111d84f7b3fe45a0852e59758cd7a87e5</title>
<path fill="none" stroke="#333333" d="M764.08,-304C774.08,-304 784.68,-304 794.66,-304"/>
<polygon fill="#333333" stroke="#333333" points="794.82,-305.75 799.82,-304 794.82,-302.25 794.82,-305.75"/>
</g>
<!-- transition_0716d9708d321ffb6a00818614779e779925365c -->
<g id="node25" class="node">
<title>transition_0716d9708d321ffb6a00818614779e779925365c</title>
<polygon fill="none" stroke="#333333" points="1000.35,-473 928.35,-473 928.35,-401 1000.35,-401 1000.35,-473"/>
<text text-anchor="middle" x="964.35" y="-434.8" font-family="Arial" font-size="9.00">complete</text>
</g>
<!-- place_187955bd49ccea4edc51b03b9f2895d2b49100ce&#45;&gt;transition_0716d9708d321ffb6a00818614779e779925365c -->
<g id="edge35" class="edge">
<title>place_187955bd49ccea4edc51b03b9f2895d2b49100ce&#45;&gt;transition_0716d9708d321ffb6a00818614779e779925365c</title>
<path fill="none" stroke="#333333" d="M746.78,-340C761.09,-356.35 779.73,-374.74 799.84,-387 838.25,-410.41 888.49,-423.63 923.08,-430.51"/>
<polygon fill="#333333" stroke="#333333" points="922.83,-432.25 928.07,-431.48 923.5,-428.81 922.83,-432.25"/>
</g>
<!-- place_231e564db4cdb44a6545583a8d460edc7f9f97ca -->
<g id="node7" class="node">
<title>place_231e564db4cdb44a6545583a8d460edc7f9f97ca</title>
<ellipse fill="none" stroke="#333333" cx="1448.87" cy="-431" rx="36" ry="36"/>
<text text-anchor="middle" x="1448.87" y="-428.8" font-family="Arial" font-size="9.00">completed</text>
</g>
<!-- transition_b6589fc6ab0dc82cf12099d1c2d40ab994e8410c&#45;&gt;place_74c70e83a9f58141487d73749193bf049153a472 -->
<g id="edge2" class="edge">
<title>transition_b6589fc6ab0dc82cf12099d1c2d40ab994e8410c&#45;&gt;place_74c70e83a9f58141487d73749193bf049153a472</title>
<path fill="none" stroke="#333333" d="M180,-247C189.76,-247 200.44,-247 210.49,-247"/>
<polygon fill="#333333" stroke="#333333" points="210.67,-248.75 215.67,-247 210.67,-245.25 210.67,-248.75"/>
</g>
<!-- transition_356a192b7913b04c54574d18c28d46e6395428ab&#45;&gt;place_74c70e83a9f58141487d73749193bf049153a472 -->
<g id="edge4" class="edge">
<title>transition_356a192b7913b04c54574d18c28d46e6395428ab&#45;&gt;place_74c70e83a9f58141487d73749193bf049153a472</title>
<path fill="none" stroke="#333333" d="M327.2,-385.91C326.11,-384.26 325.04,-382.62 324,-381 303.81,-349.52 282.93,-312.07 269.09,-284.62"/>
<polygon fill="#333333" stroke="#333333" points="270.56,-283.65 266.76,-279.96 267.43,-285.21 270.56,-283.65"/>
</g>
<!-- transition_da4b9237bacccdf19c0760cab7aec4a8359010b0&#45;&gt;place_74c70e83a9f58141487d73749193bf049153a472 -->
<g id="edge6" class="edge">
<title>transition_da4b9237bacccdf19c0760cab7aec4a8359010b0&#45;&gt;place_74c70e83a9f58141487d73749193bf049153a472</title>
<path fill="none" stroke="#333333" d="M1052.32,-64.93C1004.61,-66.11 916.52,-68 841.34,-68 478.96,-68 478.96,-68 478.96,-68 386.96,-68 310.57,-160.3 274.81,-212.34"/>
<polygon fill="#333333" stroke="#333333" points="273.26,-211.52 271.89,-216.64 276.15,-213.49 273.26,-211.52"/>
</g>
<!-- transition_77de68daecd823babbb58edb1c8e14d7106e83bb&#45;&gt;place_74c70e83a9f58141487d73749193bf049153a472 -->
<g id="edge8" class="edge">
<title>transition_77de68daecd823babbb58edb1c8e14d7106e83bb&#45;&gt;place_74c70e83a9f58141487d73749193bf049153a472</title>
<path fill="none" stroke="#333333" d="M562.52,-403.66C507.74,-395.63 400.74,-374.62 324,-326 305.48,-314.26 288.84,-296.38 276.34,-280.6"/>
<polygon fill="#333333" stroke="#333333" points="277.7,-279.5 273.25,-276.64 274.94,-281.66 277.7,-279.5"/>
</g>
<!-- transition_1b6453892473a467d07372d45eb05abc2031647a&#45;&gt;place_74c70e83a9f58141487d73749193bf049153a472 -->
<g id="edge10" class="edge">
<title>transition_1b6453892473a467d07372d45eb05abc2031647a&#45;&gt;place_74c70e83a9f58141487d73749193bf049153a472</title>
<path fill="none" stroke="#333333" d="M1300.07,-41.97C1252.79,-25.7 1165.94,0 1089.35,0 478.96,0 478.96,0 478.96,0 399.32,0 377.39,-30.9 324,-90 293.42,-123.85 274.08,-173.09 263.44,-207.36"/>
<polygon fill="#333333" stroke="#333333" points="261.71,-207.02 261.93,-212.31 265.06,-208.04 261.71,-207.02"/>
</g>
<!-- transition_ac3478d69a3c81fa62e60f5c3696165a4e5e6ac4&#45;&gt;place_74c70e83a9f58141487d73749193bf049153a472 -->
<g id="edge12" class="edge">
<title>transition_ac3478d69a3c81fa62e60f5c3696165a4e5e6ac4&#45;&gt;place_74c70e83a9f58141487d73749193bf049153a472</title>
<path fill="none" stroke="#333333" d="M804.05,-209.24C757.34,-209.54 672.45,-210 599.92,-210 478.96,-210 478.96,-210 478.96,-210 412.74,-210 337.03,-225.67 292.21,-236.61"/>
<polygon fill="#333333" stroke="#333333" points="291.6,-234.96 287.17,-237.85 292.44,-238.36 291.6,-234.96"/>
</g>
<!-- transition_c1dfd96eea8cc2b62785275bca38ac261256e278&#45;&gt;place_d32f196982e3fb5b5b2c59e1c5e0d888fb0fbac0 -->
<g id="edge14" class="edge">
<title>transition_c1dfd96eea8cc2b62785275bca38ac261256e278&#45;&gt;place_d32f196982e3fb5b5b2c59e1c5e0d888fb0fbac0</title>
<path fill="none" stroke="#333333" d="M398.05,-281.23C407.74,-281.56 418.4,-281.93 428.71,-282.28"/>
<polygon fill="#333333" stroke="#333333" points="428.68,-284.03 433.73,-282.45 428.8,-280.53 428.68,-284.03"/>
</g>
<!-- transition_902ba3cda1883801594b6e1b452790cc53948fda&#45;&gt;place_b503304f0fe3229614f5e34f3e48fefa4dc7f5c2 -->
<g id="edge16" class="edge">
<title>transition_902ba3cda1883801594b6e1b452790cc53948fda&#45;&gt;place_b503304f0fe3229614f5e34f3e48fefa4dc7f5c2</title>
<path fill="none" stroke="#333333" d="M520.59,-139.64C592.94,-137.95 750.95,-137.98 880.84,-164 892.07,-166.25 903.85,-169.69 914.87,-173.43"/>
<polygon fill="#333333" stroke="#333333" points="914.58,-175.18 919.88,-175.16 915.73,-171.87 914.58,-175.18"/>
</g>
<!-- transition_fe5dbbcea5ce7e2988b8c69bcfdfde8904aabc1f&#45;&gt;place_b503304f0fe3229614f5e34f3e48fefa4dc7f5c2 -->
<g id="edge18" class="edge">
<title>transition_fe5dbbcea5ce7e2988b8c69bcfdfde8904aabc1f&#45;&gt;place_b503304f0fe3229614f5e34f3e48fefa4dc7f5c2</title>
<path fill="none" stroke="#333333" d="M1047.55,-176.47C1037.65,-179.59 1026.89,-182.69 1016.53,-185.41"/>
<polygon fill="#333333" stroke="#333333" points="1015.88,-183.77 1011.47,-186.71 1016.75,-187.16 1015.88,-183.77"/>
</g>
<!-- transition_0ade7c2cf97f75d009975f4d720d1fa6c19f4897&#45;&gt;place_b503304f0fe3229614f5e34f3e48fefa4dc7f5c2 -->
<g id="edge20" class="edge">
<title>transition_0ade7c2cf97f75d009975f4d720d1fa6c19f4897&#45;&gt;place_b503304f0fe3229614f5e34f3e48fefa4dc7f5c2</title>
<path fill="none" stroke="#333333" d="M1295.73,-208.29C1240.17,-212.27 1136.06,-217.47 1047.85,-209 1037.49,-208 1026.5,-206.32 1016.03,-204.41"/>
<polygon fill="#333333" stroke="#333333" points="1016.18,-202.66 1010.94,-203.46 1015.54,-206.1 1016.18,-202.66"/>
</g>
<!-- transition_b1d5781111d84f7b3fe45a0852e59758cd7a87e5&#45;&gt;place_b503304f0fe3229614f5e34f3e48fefa4dc7f5c2 -->
<g id="edge22" class="edge">
<title>transition_b1d5781111d84f7b3fe45a0852e59758cd7a87e5&#45;&gt;place_b503304f0fe3229614f5e34f3e48fefa4dc7f5c2</title>
<path fill="none" stroke="#333333" d="M880.95,-267.96C894.94,-255.23 910.65,-240.94 924.58,-228.27"/>
<polygon fill="#333333" stroke="#333333" points="925.93,-229.4 928.45,-224.75 923.58,-226.82 925.93,-229.4"/>
</g>
<!-- transition_17ba0791499db908433b80f37c5fbc89b870084b&#45;&gt;place_187955bd49ccea4edc51b03b9f2895d2b49100ce -->
<g id="edge24" class="edge">
<title>transition_17ba0791499db908433b80f37c5fbc89b870084b&#45;&gt;place_187955bd49ccea4edc51b03b9f2895d2b49100ce</title>
<path fill="none" stroke="#333333" d="M1051.26,-392.87C995.65,-391.63 886.38,-385.01 799.84,-354 786.13,-349.09 772.25,-341.63 759.96,-333.96"/>
<polygon fill="#333333" stroke="#333333" points="760.67,-332.33 755.51,-331.13 758.79,-335.29 760.67,-332.33"/>
</g>
<!-- transition_7b52009b64fd0a2a49e6d8a939753077792b0554&#45;&gt;place_187955bd49ccea4edc51b03b9f2895d2b49100ce -->
<g id="edge26" class="edge">
<title>transition_7b52009b64fd0a2a49e6d8a939753077792b0554&#45;&gt;place_187955bd49ccea4edc51b03b9f2895d2b49100ce</title>
<path fill="none" stroke="#333333" d="M635.96,-286.7C645.89,-288.83 656.82,-291.16 667.36,-293.42"/>
<polygon fill="#333333" stroke="#333333" points="667.24,-295.18 672.5,-294.51 667.97,-291.76 667.24,-295.18"/>
</g>
<!-- transition_bd307a3ec329e10a2cff8fb87480823da114f8f4&#45;&gt;place_6f3aef6e8830c76c40e1ef96ea03bbd9ae20edc4 -->
<g id="edge28" class="edge">
<title>transition_bd307a3ec329e10a2cff8fb87480823da114f8f4&#45;&gt;place_6f3aef6e8830c76c40e1ef96ea03bbd9ae20edc4</title>
<path fill="none" stroke="#333333" d="M1295.57,-310.37C1285.67,-310.74 1274.91,-310.84 1264.54,-310.67"/>
<polygon fill="#333333" stroke="#333333" points="1264.52,-308.92 1259.49,-310.57 1264.45,-312.42 1264.52,-308.92"/>
</g>
<!-- transition_fa35e192121eabf3dabf9f5ea6abdbcbc107ac3b&#45;&gt;place_6f3aef6e8830c76c40e1ef96ea03bbd9ae20edc4 -->
<g id="edge30" class="edge">
<title>transition_fa35e192121eabf3dabf9f5ea6abdbcbc107ac3b&#45;&gt;place_6f3aef6e8830c76c40e1ef96ea03bbd9ae20edc4</title>
<path fill="none" stroke="#333333" d="M758.48,-464.54C815.05,-478.06 922.06,-497.98 1011.85,-482 1066.4,-472.29 1086.03,-474.14 1128.85,-439 1156.77,-416.09 1177.77,-381.11 1191.6,-352.5"/>
<polygon fill="#333333" stroke="#333333" points="1193.19,-353.23 1193.76,-347.96 1190.03,-351.72 1193.19,-353.23"/>
</g>
<!-- transition_f1abd670358e036c31296e66b3b66c382ac00812&#45;&gt;place_6f3aef6e8830c76c40e1ef96ea03bbd9ae20edc4 -->
<g id="edge32" class="edge">
<title>transition_f1abd670358e036c31296e66b3b66c382ac00812&#45;&gt;place_6f3aef6e8830c76c40e1ef96ea03bbd9ae20edc4</title>
<path fill="none" stroke="#333333" d="M1128.97,-299.27C1138.77,-299.84 1149.43,-300.45 1159.71,-301.04"/>
<polygon fill="#333333" stroke="#333333" points="1159.64,-302.79 1164.73,-301.32 1159.84,-299.29 1159.64,-302.79"/>
</g>
<!-- transition_1574bddb75c78a6fd2251d61e2993b5146201319&#45;&gt;place_231e564db4cdb44a6545583a8d460edc7f9f97ca -->
<g id="edge34" class="edge">
<title>transition_1574bddb75c78a6fd2251d61e2993b5146201319&#45;&gt;place_231e564db4cdb44a6545583a8d460edc7f9f97ca</title>
<path fill="none" stroke="#333333" d="M1372.64,-409.21C1384.24,-412.57 1397.21,-416.33 1409.06,-419.76"/>
<polygon fill="#333333" stroke="#333333" points="1408.78,-421.5 1414.07,-421.21 1409.75,-418.14 1408.78,-421.5"/>
</g>
<!-- transition_0716d9708d321ffb6a00818614779e779925365c&#45;&gt;place_231e564db4cdb44a6545583a8d460edc7f9f97ca -->
<g id="edge36" class="edge">
<title>transition_0716d9708d321ffb6a00818614779e779925365c&#45;&gt;place_231e564db4cdb44a6545583a8d460edc7f9f97ca</title>
<path fill="none" stroke="#333333" d="M1000.68,-437.89C1015.28,-438.25 1032.38,-438.66 1047.85,-439 1194.07,-442.25 1231.22,-457.22 1376.87,-444 1387.17,-443.07 1398.2,-441.38 1408.43,-439.53"/>
<polygon fill="#333333" stroke="#333333" points="1408.78,-441.25 1413.38,-438.61 1408.14,-437.81 1408.78,-441.25"/>
</g>
</g>
</svg>
