<?xml version="1.0" encoding="UTF-8" standalone="no"?>
<!DOCTYPE svg PUBLIC "-//W3C//DTD SVG 1.1//EN"
 "http://www.w3.org/Graphics/SVG/1.1/DTD/svg11.dtd">
<!-- Generated by graphviz version 2.43.0 (0)
 -->
<!-- Title: workflow Pages: 1 -->
<svg width="1017pt" height="651pt"
 viewBox="0.00 0.00 1017.03 651.00" xmlns="http://www.w3.org/2000/svg" xmlns:xlink="http://www.w3.org/1999/xlink">
<g id="graph0" class="graph" transform="scale(1 1) rotate(0) translate(4 647)">
<title>workflow</title>
<polygon fill="white" stroke="transparent" points="-4,4 -4,-647 1013.03,-647 1013.03,4 -4,4"/>
<!-- place_8bfb4e1aa590eab8f08f837b97acf5803a5737ed -->
<g id="node1" class="node">
<title>place_8bfb4e1aa590eab8f08f837b97acf5803a5737ed</title>
<ellipse fill="lightblue" stroke="#333333" cx="36" cy="-512" rx="36" ry="36"/>
<text text-anchor="middle" x="36" y="-509.8" font-family="Arial" font-size="9.00">cart</text>
</g>
<!-- transition_b6589fc6ab0dc82cf12099d1c2d40ab994e8410c -->
<g id="node7" class="node">
<title>transition_b6589fc6ab0dc82cf12099d1c2d40ab994e8410c</title>
<polygon fill="none" stroke="#333333" points="180,-548 108,-548 108,-476 180,-476 180,-548"/>
<text text-anchor="middle" x="144" y="-509.8" font-family="Arial" font-size="9.00">address</text>
</g>
<!-- place_8bfb4e1aa590eab8f08f837b97acf5803a5737ed&#45;&gt;transition_b6589fc6ab0dc82cf12099d1c2d40ab994e8410c -->
<g id="edge1" class="edge">
<title>place_8bfb4e1aa590eab8f08f837b97acf5803a5737ed&#45;&gt;transition_b6589fc6ab0dc82cf12099d1c2d40ab994e8410c</title>
<path fill="none" stroke="#333333" d="M72,-512C81.76,-512 92.44,-512 102.49,-512"/>
<polygon fill="#333333" stroke="#333333" points="102.67,-513.75 107.67,-512 102.67,-510.25 102.67,-513.75"/>
</g>
<!-- place_74c70e83a9f58141487d73749193bf049153a472 -->
<g id="node2" class="node">
<title>place_74c70e83a9f58141487d73749193bf049153a472</title>
<ellipse fill="none" stroke="#333333" cx="252" cy="-512" rx="36" ry="36"/>
<text text-anchor="middle" x="252" y="-509.8" font-family="Arial" font-size="9.00">addressed</text>
</g>
<!-- transition_356a192b7913b04c54574d18c28d46e6395428ab -->
<g id="node8" class="node">
<title>transition_356a192b7913b04c54574d18c28d46e6395428ab</title>
<polygon fill="none" stroke="#333333" points="400.5,-631 328.5,-631 328.5,-559 400.5,-559 400.5,-631"/>
<text text-anchor="middle" x="364.5" y="-592.8" font-family="Arial" font-size="9.00">address</text>
</g>
<!-- place_74c70e83a9f58141487d73749193bf049153a472&#45;&gt;transition_356a192b7913b04c54574d18c28d46e6395428ab -->
<g id="edge3" class="edge">
<title>place_74c70e83a9f58141487d73749193bf049153a472&#45;&gt;transition_356a192b7913b04c54574d18c28d46e6395428ab</title>
<path fill="none" stroke="#333333" d="M283.78,-529C296.28,-537.7 310.88,-548.54 324.14,-558.94"/>
<polygon fill="#333333" stroke="#333333" points="323.2,-560.42 328.2,-562.15 325.36,-557.68 323.2,-560.42"/>
</g>
<!-- transition_ac3478d69a3c81fa62e60f5c3696165a4e5e6ac4 -->
<g id="node12" class="node">
<title>transition_ac3478d69a3c81fa62e60f5c3696165a4e5e6ac4</title>
<polygon fill="none" stroke="#333333" points="405,-358.5 324,-358.5 324,-277.5 405,-277.5 405,-358.5"/>
<text text-anchor="middle" x="364.5" y="-315.8" font-family="Arial" font-size="9.00">select_shipping</text>
</g>
<!-- place_74c70e83a9f58141487d73749193bf049153a472&#45;&gt;transition_ac3478d69a3c81fa62e60f5c3696165a4e5e6ac4 -->
<g id="edge11" class="edge">
<title>place_74c70e83a9f58141487d73749193bf049153a472&#45;&gt;transition_ac3478d69a3c81fa62e60f5c3696165a4e5e6ac4</title>
<path fill="none" stroke="#333333" d="M270.75,-480.83C288.85,-449.05 317.12,-399.43 337.69,-363.31"/>
<polygon fill="#333333" stroke="#333333" points="339.46,-363.74 340.41,-358.53 336.42,-362.01 339.46,-363.74"/>
</g>
<!-- place_b503304f0fe3229614f5e34f3e48fefa4dc7f5c2 -->
<g id="node3" class="node">
<title>place_b503304f0fe3229614f5e34f3e48fefa4dc7f5c2</title>
<ellipse fill="none" stroke="#333333" cx="488.51" cy="-271" rx="47.52" ry="47.52"/>
<text text-anchor="middle" x="488.51" y="-268.8" font-family="Arial" font-size="9.00">shipping_selected</text>
</g>
<!-- transition_da4b9237bacccdf19c0760cab7aec4a8359010b0 -->
<g id="node9" class="node">
<title>transition_da4b9237bacccdf19c0760cab7aec4a8359010b0</title>
<polygon fill="none" stroke="#333333" points="648.52,-503 576.52,-503 576.52,-431 648.52,-431 648.52,-503"/>
<text text-anchor="middle" x="612.52" y="-464.8" font-family="Arial" font-size="9.00">address</text>
</g>
<!-- place_b503304f0fe3229614f5e34f3e48fefa4dc7f5c2&#45;&gt;transition_da4b9237bacccdf19c0760cab7aec4a8359010b0 -->
<g id="edge5" class="edge">
<title>place_b503304f0fe3229614f5e34f3e48fefa4dc7f5c2&#45;&gt;transition_da4b9237bacccdf19c0760cab7aec4a8359010b0</title>
<path fill="none" stroke="#333333" d="M509.72,-313.81C525.14,-344.88 547.79,-387.36 572.02,-422 573.12,-423.58 574.28,-425.18 575.47,-426.76"/>
<polygon fill="#333333" stroke="#333333" points="574.26,-428.06 578.69,-430.96 577.03,-425.93 574.26,-428.06"/>
</g>
<!-- transition_c1dfd96eea8cc2b62785275bca38ac261256e278 -->
<g id="node13" class="node">
<title>transition_c1dfd96eea8cc2b62785275bca38ac261256e278</title>
<polygon fill="none" stroke="#333333" points="653.02,-144.5 572.02,-144.5 572.02,-63.5 653.02,-63.5 653.02,-144.5"/>
<text text-anchor="middle" x="612.52" y="-101.8" font-family="Arial" font-size="9.00">select_shipping</text>
</g>
<!-- place_b503304f0fe3229614f5e34f3e48fefa4dc7f5c2&#45;&gt;transition_c1dfd96eea8cc2b62785275bca38ac261256e278 -->
<g id="edge13" class="edge">
<title>place_b503304f0fe3229614f5e34f3e48fefa4dc7f5c2&#45;&gt;transition_c1dfd96eea8cc2b62785275bca38ac261256e278</title>
<path fill="none" stroke="#333333" d="M514.79,-230.8C531.95,-206.05 554.93,-174.37 574.19,-148.82"/>
<polygon fill="#333333" stroke="#333333" points="575.63,-149.82 577.25,-144.77 572.83,-147.71 575.63,-149.82"/>
</g>
<!-- transition_0ade7c2cf97f75d009975f4d720d1fa6c19f4897 -->
<g id="node16" class="node">
<title>transition_0ade7c2cf97f75d009975f4d720d1fa6c19f4897</title>
<polygon fill="none" stroke="#333333" points="649.52,-275 575.52,-275 575.52,-201 649.52,-201 649.52,-275"/>
<text text-anchor="middle" x="612.52" y="-235.8" font-family="Arial" font-size="9.00">skip_payment</text>
</g>
<!-- place_b503304f0fe3229614f5e34f3e48fefa4dc7f5c2&#45;&gt;transition_0ade7c2cf97f75d009975f4d720d1fa6c19f4897 -->
<g id="edge19" class="edge">
<title>place_b503304f0fe3229614f5e34f3e48fefa4dc7f5c2&#45;&gt;transition_0ade7c2cf97f75d009975f4d720d1fa6c19f4897</title>
<path fill="none" stroke="#333333" d="M534.59,-258.81C546.35,-255.62 558.96,-252.21 570.5,-249.09"/>
<polygon fill="#333333" stroke="#333333" points="571,-250.77 575.37,-247.78 570.09,-247.39 571,-250.77"/>
</g>
<!-- transition_17ba0791499db908433b80f37c5fbc89b870084b -->
<g id="node18" class="node">
<title>transition_17ba0791499db908433b80f37c5fbc89b870084b</title>
<polygon fill="none" stroke="#333333" points="653.02,-412.5 572.02,-412.5 572.02,-331.5 653.02,-331.5 653.02,-412.5"/>
<text text-anchor="middle" x="612.52" y="-369.8" font-family="Arial" font-size="9.00">select_payment</text>
</g>
<!-- place_b503304f0fe3229614f5e34f3e48fefa4dc7f5c2&#45;&gt;transition_17ba0791499db908433b80f37c5fbc89b870084b -->
<g id="edge23" class="edge">
<title>place_b503304f0fe3229614f5e34f3e48fefa4dc7f5c2&#45;&gt;transition_17ba0791499db908433b80f37c5fbc89b870084b</title>
<path fill="none" stroke="#333333" d="M525.78,-301.03C539.01,-311.98 554.11,-324.47 567.9,-335.9"/>
<polygon fill="#333333" stroke="#333333" points="566.79,-337.25 571.76,-339.09 569.02,-334.55 566.79,-337.25"/>
</g>
<!-- place_6f3aef6e8830c76c40e1ef96ea03bbd9ae20edc4 -->
<g id="node4" class="node">
<title>place_6f3aef6e8830c76c40e1ef96ea03bbd9ae20edc4</title>
<ellipse fill="none" stroke="#333333" cx="736.53" cy="-436" rx="47.52" ry="47.52"/>
<text text-anchor="middle" x="736.53" y="-433.8" font-family="Arial" font-size="9.00">payment_selected</text>
</g>
<!-- transition_77de68daecd823babbb58edb1c8e14d7106e83bb -->
<g id="node10" class="node">
<title>transition_77de68daecd823babbb58edb1c8e14d7106e83bb</title>
<polygon fill="none" stroke="#333333" points="896.53,-643 824.53,-643 824.53,-571 896.53,-571 896.53,-643"/>
<text text-anchor="middle" x="860.53" y="-604.8" font-family="Arial" font-size="9.00">address</text>
</g>
<!-- place_6f3aef6e8830c76c40e1ef96ea03bbd9ae20edc4&#45;&gt;transition_77de68daecd823babbb58edb1c8e14d7106e83bb -->
<g id="edge7" class="edge">
<title>place_6f3aef6e8830c76c40e1ef96ea03bbd9ae20edc4&#45;&gt;transition_77de68daecd823babbb58edb1c8e14d7106e83bb</title>
<path fill="none" stroke="#333333" d="M761.96,-476.42C777.7,-501.64 799.06,-534.42 820.03,-562 821.2,-563.54 822.41,-565.09 823.65,-566.65"/>
<polygon fill="#333333" stroke="#333333" points="822.47,-567.98 826.97,-570.77 825.19,-565.78 822.47,-567.98"/>
</g>
<!-- transition_902ba3cda1883801594b6e1b452790cc53948fda -->
<g id="node14" class="node">
<title>transition_902ba3cda1883801594b6e1b452790cc53948fda</title>
<polygon fill="none" stroke="#333333" points="901.03,-362.5 820.03,-362.5 820.03,-281.5 901.03,-281.5 901.03,-362.5"/>
<text text-anchor="middle" x="860.53" y="-319.8" font-family="Arial" font-size="9.00">select_shipping</text>
</g>
<!-- place_6f3aef6e8830c76c40e1ef96ea03bbd9ae20edc4&#45;&gt;transition_902ba3cda1883801594b6e1b452790cc53948fda -->
<g id="edge15" class="edge">
<title>place_6f3aef6e8830c76c40e1ef96ea03bbd9ae20edc4&#45;&gt;transition_902ba3cda1883801594b6e1b452790cc53948fda</title>
<path fill="none" stroke="#333333" d="M771.84,-403.94C785.61,-391.07 801.65,-376.09 816.21,-362.48"/>
<polygon fill="#333333" stroke="#333333" points="817.42,-363.74 819.88,-359.05 815.03,-361.18 817.42,-363.74"/>
</g>
<!-- transition_b1d5781111d84f7b3fe45a0852e59758cd7a87e5 -->
<g id="node17" class="node">
<title>transition_b1d5781111d84f7b3fe45a0852e59758cd7a87e5</title>
<polygon fill="none" stroke="#333333" points="901.03,-552.5 820.03,-552.5 820.03,-471.5 901.03,-471.5 901.03,-552.5"/>
<text text-anchor="middle" x="860.53" y="-509.8" font-family="Arial" font-size="9.00">select_payment</text>
</g>
<!-- place_6f3aef6e8830c76c40e1ef96ea03bbd9ae20edc4&#45;&gt;transition_b1d5781111d84f7b3fe45a0852e59758cd7a87e5 -->
<g id="edge21" class="edge">
<title>place_6f3aef6e8830c76c40e1ef96ea03bbd9ae20edc4&#45;&gt;transition_b1d5781111d84f7b3fe45a0852e59758cd7a87e5</title>
<path fill="none" stroke="#333333" d="M779.86,-455.91C791.38,-462.72 803.89,-470.49 815.5,-478.06"/>
<polygon fill="#333333" stroke="#333333" points="814.6,-479.56 819.74,-480.84 816.52,-476.63 814.6,-479.56"/>
</g>
<!-- transition_7b52009b64fd0a2a49e6d8a939753077792b0554 -->
<g id="node19" class="node">
<title>transition_7b52009b64fd0a2a49e6d8a939753077792b0554</title>
<polygon fill="none" stroke="#333333" points="896.53,-453 824.53,-453 824.53,-381 896.53,-381 896.53,-453"/>
<text text-anchor="middle" x="860.53" y="-414.8" font-family="Arial" font-size="9.00">complete</text>
</g>
<!-- place_6f3aef6e8830c76c40e1ef96ea03bbd9ae20edc4&#45;&gt;transition_7b52009b64fd0a2a49e6d8a939753077792b0554 -->
<g id="edge25" class="edge">
<title>place_6f3aef6e8830c76c40e1ef96ea03bbd9ae20edc4&#45;&gt;transition_7b52009b64fd0a2a49e6d8a939753077792b0554</title>
<path fill="none" stroke="#333333" d="M783.65,-428.82C795.36,-426.99 807.84,-425.05 819.23,-423.28"/>
<polygon fill="#333333" stroke="#333333" points="819.71,-424.97 824.38,-422.47 819.17,-421.52 819.71,-424.97"/>
</g>
<!-- place_187955bd49ccea4edc51b03b9f2895d2b49100ce -->
<g id="node5" class="node">
<title>place_187955bd49ccea4edc51b03b9f2895d2b49100ce</title>
<ellipse fill="none" stroke="#333333" cx="736.53" cy="-229" rx="45.92" ry="45.92"/>
<text text-anchor="middle" x="736.53" y="-226.8" font-family="Arial" font-size="9.00">payment_skipped</text>
</g>
<!-- transition_1b6453892473a467d07372d45eb05abc2031647a -->
<g id="node11" class="node">
<title>transition_1b6453892473a467d07372d45eb05abc2031647a</title>
<polygon fill="none" stroke="#333333" points="896.53,-72 824.53,-72 824.53,0 896.53,0 896.53,-72"/>
<text text-anchor="middle" x="860.53" y="-33.8" font-family="Arial" font-size="9.00">address</text>
</g>
<!-- place_187955bd49ccea4edc51b03b9f2895d2b49100ce&#45;&gt;transition_1b6453892473a467d07372d45eb05abc2031647a -->
<g id="edge9" class="edge">
<title>place_187955bd49ccea4edc51b03b9f2895d2b49100ce&#45;&gt;transition_1b6453892473a467d07372d45eb05abc2031647a</title>
<path fill="none" stroke="#333333" d="M757.7,-188.09C773.27,-157.85 796.13,-116.17 820.03,-82 821.4,-80.05 822.82,-78.09 824.3,-76.14"/>
<polygon fill="#333333" stroke="#333333" points="825.72,-77.16 827.38,-72.13 822.94,-75.03 825.72,-77.16"/>
</g>
<!-- transition_fe5dbbcea5ce7e2988b8c69bcfdfde8904aabc1f -->
<g id="node15" class="node">
<title>transition_fe5dbbcea5ce7e2988b8c69bcfdfde8904aabc1f</title>
<polygon fill="none" stroke="#333333" points="901.03,-172.5 820.03,-172.5 820.03,-91.5 901.03,-91.5 901.03,-172.5"/>
<text text-anchor="middle" x="860.53" y="-129.8" font-family="Arial" font-size="9.00">select_shipping</text>
</g>
<!-- place_187955bd49ccea4edc51b03b9f2895d2b49100ce&#45;&gt;transition_fe5dbbcea5ce7e2988b8c69bcfdfde8904aabc1f -->
<g id="edge17" class="edge">
<title>place_187955bd49ccea4edc51b03b9f2895d2b49100ce&#45;&gt;transition_fe5dbbcea5ce7e2988b8c69bcfdfde8904aabc1f</title>
<path fill="none" stroke="#333333" d="M773.14,-200.68C786.52,-190.05 801.87,-177.84 815.89,-166.7"/>
<polygon fill="#333333" stroke="#333333" points="816.98,-168.07 819.81,-163.59 814.8,-165.33 816.98,-168.07"/>
</g>
<!-- transition_bd307a3ec329e10a2cff8fb87480823da114f8f4 -->
<g id="node20" class="node">
<title>transition_bd307a3ec329e10a2cff8fb87480823da114f8f4</title>
<polygon fill="none" stroke="#333333" points="896.53,-263 824.53,-263 824.53,-191 896.53,-191 896.53,-263"/>
<text text-anchor="middle" x="860.53" y="-224.8" font-family="Arial" font-size="9.00">complete</text>
</g>
<!-- place_187955bd49ccea4edc51b03b9f2895d2b49100ce&#45;&gt;transition_bd307a3ec329e10a2cff8fb87480823da114f8f4 -->
<g id="edge27" class="edge">
<title>place_187955bd49ccea4edc51b03b9f2895d2b49100ce&#45;&gt;transition_bd307a3ec329e10a2cff8fb87480823da114f8f4</title>
<path fill="none" stroke="#333333" d="M782.61,-228.26C794.5,-228.07 807.26,-227.86 818.9,-227.67"/>
<polygon fill="#333333" stroke="#333333" points="819.19,-229.41 824.16,-227.58 819.14,-225.91 819.19,-229.41"/>
</g>
<!-- place_231e564db4cdb44a6545583a8d460edc7f9f97ca -->
<g id="node6" class="node">
<title>place_231e564db4cdb44a6545583a8d460edc7f9f97ca</title>
<ellipse fill="none" stroke="#333333" cx="973.03" cy="-322" rx="36" ry="36"/>
<text text-anchor="middle" x="973.03" y="-319.8" font-family="Arial" font-size="9.00">completed</text>
</g>
<!-- transition_b6589fc6ab0dc82cf12099d1c2d40ab994e8410c&#45;&gt;place_74c70e83a9f58141487d73749193bf049153a472 -->
<g id="edge2" class="edge">
<title>transition_b6589fc6ab0dc82cf12099d1c2d40ab994e8410c&#45;&gt;place_74c70e83a9f58141487d73749193bf049153a472</title>
<path fill="none" stroke="#333333" d="M180,-512C189.76,-512 200.44,-512 210.49,-512"/>
<polygon fill="#333333" stroke="#333333" points="210.67,-513.75 215.67,-512 210.67,-510.25 210.67,-513.75"/>
</g>
<!-- transition_356a192b7913b04c54574d18c28d46e6395428ab&#45;&gt;place_74c70e83a9f58141487d73749193bf049153a472 -->
<g id="edge4" class="edge">
<title>transition_356a192b7913b04c54574d18c28d46e6395428ab&#45;&gt;place_74c70e83a9f58141487d73749193bf049153a472</title>
<path fill="none" stroke="#333333" d="M328.22,-574.84C313.4,-564.34 296.36,-551.44 282.25,-540.01"/>
<polygon fill="#333333" stroke="#333333" points="283.33,-538.63 278.35,-536.82 281.12,-541.34 283.33,-538.63"/>
</g>
<!-- transition_da4b9237bacccdf19c0760cab7aec4a8359010b0&#45;&gt;place_74c70e83a9f58141487d73749193bf049153a472 -->
<g id="edge6" class="edge">
<title>transition_da4b9237bacccdf19c0760cab7aec4a8359010b0&#45;&gt;place_74c70e83a9f58141487d73749193bf049153a472</title>
<path fill="none" stroke="#333333" d="M576.35,-471.41C509.44,-479.81 364.19,-498.04 293.41,-506.93"/>
<polygon fill="#333333" stroke="#333333" points="292.77,-505.24 288.03,-507.6 293.21,-508.72 292.77,-505.24"/>
</g>
<!-- transition_77de68daecd823babbb58edb1c8e14d7106e83bb&#45;&gt;place_74c70e83a9f58141487d73749193bf049153a472 -->
<g id="edge8" class="edge">
<title>transition_77de68daecd823babbb58edb1c8e14d7106e83bb&#45;&gt;place_74c70e83a9f58141487d73749193bf049153a472</title>
<path fill="none" stroke="#333333" d="M824.33,-588.8C777.49,-566.31 691.52,-531 613.52,-531 487.51,-531 487.51,-531 487.51,-531 419.07,-531 339.77,-522.86 293.14,-517.24"/>
<polygon fill="#333333" stroke="#333333" points="293.07,-515.47 287.89,-516.6 292.64,-518.94 293.07,-515.47"/>
</g>
<!-- transition_1b6453892473a467d07372d45eb05abc2031647a&#45;&gt;place_74c70e83a9f58141487d73749193bf049153a472 -->
<g id="edge10" class="edge">
<title>transition_1b6453892473a467d07372d45eb05abc2031647a&#45;&gt;place_74c70e83a9f58141487d73749193bf049153a472</title>
<path fill="none" stroke="#333333" d="M824.5,-35.77C776.78,-35.47 688.69,-35 613.52,-35 487.51,-35 487.51,-35 487.51,-35 294.06,-35 260.18,-354.86 254.25,-470.73"/>
<polygon fill="#333333" stroke="#333333" points="252.5,-470.68 254.01,-475.76 256,-470.85 252.5,-470.68"/>
</g>
<!-- transition_ac3478d69a3c81fa62e60f5c3696165a4e5e6ac4&#45;&gt;place_b503304f0fe3229614f5e34f3e48fefa4dc7f5c2 -->
<g id="edge12" class="edge">
<title>transition_ac3478d69a3c81fa62e60f5c3696165a4e5e6ac4&#45;&gt;place_b503304f0fe3229614f5e34f3e48fefa4dc7f5c2</title>
<path fill="none" stroke="#333333" d="M405.11,-302.74C415.95,-298.57 427.82,-293.99 439.09,-289.65"/>
<polygon fill="#333333" stroke="#333333" points="439.84,-291.24 443.88,-287.81 438.58,-287.97 439.84,-291.24"/>
</g>
<!-- transition_c1dfd96eea8cc2b62785275bca38ac261256e278&#45;&gt;place_b503304f0fe3229614f5e34f3e48fefa4dc7f5c2 -->
<g id="edge14" class="edge">
<title>transition_c1dfd96eea8cc2b62785275bca38ac261256e278&#45;&gt;place_b503304f0fe3229614f5e34f3e48fefa4dc7f5c2</title>
<path fill="none" stroke="#333333" d="M585.96,-144.6C567.71,-170.91 542.97,-204.92 523.12,-231.09"/>
<polygon fill="#333333" stroke="#333333" points="521.62,-230.18 519.98,-235.22 524.4,-232.3 521.62,-230.18"/>
</g>
<!-- transition_902ba3cda1883801594b6e1b452790cc53948fda&#45;&gt;place_b503304f0fe3229614f5e34f3e48fefa4dc7f5c2 -->
<g id="edge16" class="edge">
<title>transition_902ba3cda1883801594b6e1b452790cc53948fda&#45;&gt;place_b503304f0fe3229614f5e34f3e48fefa4dc7f5c2</title>
<path fill="none" stroke="#333333" d="M819.96,-317.09C764.48,-310.13 660.47,-296.81 572.02,-284 561.9,-282.54 551.11,-280.89 540.77,-279.28"/>
<polygon fill="#333333" stroke="#333333" points="540.95,-277.54 535.73,-278.49 540.4,-280.99 540.95,-277.54"/>
</g>
<!-- transition_fe5dbbcea5ce7e2988b8c69bcfdfde8904aabc1f&#45;&gt;place_b503304f0fe3229614f5e34f3e48fefa4dc7f5c2 -->
<g id="edge18" class="edge">
<title>transition_fe5dbbcea5ce7e2988b8c69bcfdfde8904aabc1f&#45;&gt;place_b503304f0fe3229614f5e34f3e48fefa4dc7f5c2</title>
<path fill="none" stroke="#333333" d="M820.03,-133.42C762.38,-136.94 653.23,-149.23 572.02,-192 553.89,-201.54 536.96,-216.25 523.21,-230.39"/>
<polygon fill="#333333" stroke="#333333" points="521.61,-229.54 519.42,-234.36 524.14,-231.96 521.61,-229.54"/>
</g>
<!-- transition_0ade7c2cf97f75d009975f4d720d1fa6c19f4897&#45;&gt;place_187955bd49ccea4edc51b03b9f2895d2b49100ce -->
<g id="edge20" class="edge">
<title>transition_0ade7c2cf97f75d009975f4d720d1fa6c19f4897&#45;&gt;place_187955bd49ccea4edc51b03b9f2895d2b49100ce</title>
<path fill="none" stroke="#333333" d="M649.79,-235.32C660.98,-234.5 673.5,-233.58 685.45,-232.69"/>
<polygon fill="#333333" stroke="#333333" points="685.67,-234.43 690.52,-232.32 685.41,-230.94 685.67,-234.43"/>
</g>
<!-- transition_b1d5781111d84f7b3fe45a0852e59758cd7a87e5&#45;&gt;place_6f3aef6e8830c76c40e1ef96ea03bbd9ae20edc4 -->
<g id="edge22" class="edge">
<title>transition_b1d5781111d84f7b3fe45a0852e59758cd7a87e5&#45;&gt;place_6f3aef6e8830c76c40e1ef96ea03bbd9ae20edc4</title>
<path fill="none" stroke="#333333" d="M819.98,-493.72C806.74,-485.97 791.95,-476.78 778.6,-468.01"/>
<polygon fill="#333333" stroke="#333333" points="779.27,-466.35 774.13,-465.05 777.34,-469.27 779.27,-466.35"/>
</g>
<!-- transition_17ba0791499db908433b80f37c5fbc89b870084b&#45;&gt;place_6f3aef6e8830c76c40e1ef96ea03bbd9ae20edc4 -->
<g id="edge24" class="edge">
<title>transition_17ba0791499db908433b80f37c5fbc89b870084b&#45;&gt;place_6f3aef6e8830c76c40e1ef96ea03bbd9ae20edc4</title>
<path fill="none" stroke="#333333" d="M653.13,-392.78C664.68,-398.84 677.4,-405.51 689.32,-411.76"/>
<polygon fill="#333333" stroke="#333333" points="688.77,-413.45 694.01,-414.23 690.4,-410.35 688.77,-413.45"/>
</g>
<!-- transition_7b52009b64fd0a2a49e6d8a939753077792b0554&#45;&gt;place_231e564db4cdb44a6545583a8d460edc7f9f97ca -->
<g id="edge26" class="edge">
<title>transition_7b52009b64fd0a2a49e6d8a939753077792b0554&#45;&gt;place_231e564db4cdb44a6545583a8d460edc7f9f97ca</title>
<path fill="none" stroke="#333333" d="M896.8,-386.68C911.12,-374.37 927.51,-360.28 941.32,-348.4"/>
<polygon fill="#333333" stroke="#333333" points="942.5,-349.7 945.15,-345.11 940.22,-347.05 942.5,-349.7"/>
</g>
<!-- transition_bd307a3ec329e10a2cff8fb87480823da114f8f4&#45;&gt;place_231e564db4cdb44a6545583a8d460edc7f9f97ca -->
<g id="edge28" class="edge">
<title>transition_bd307a3ec329e10a2cff8fb87480823da114f8f4&#45;&gt;place_231e564db4cdb44a6545583a8d460edc7f9f97ca</title>
<path fill="none" stroke="#333333" d="M896.8,-257.32C911.12,-269.63 927.51,-283.72 941.32,-295.6"/>
<polygon fill="#333333" stroke="#333333" points="940.22,-296.95 945.15,-298.89 942.5,-294.3 940.22,-296.95"/>
</g>
</g>
</svg>
