<?xml version="1.0" encoding="UTF-8" standalone="no"?>
<!DOCTYPE svg PUBLIC "-//W3C//DTD SVG 1.1//EN"
 "http://www.w3.org/Graphics/SVG/1.1/DTD/svg11.dtd">
<!-- Generated by graphviz version 2.43.0 (0)
 -->
<!-- Title: workflow Pages: 1 -->
<svg width="1046pt" height="715pt"
 viewBox="0.00 0.00 1045.95 715.00" xmlns="http://www.w3.org/2000/svg" xmlns:xlink="http://www.w3.org/1999/xlink">
<g id="graph0" class="graph" transform="scale(1 1) rotate(0) translate(4 711)">
<title>workflow</title>
<polygon fill="white" stroke="transparent" points="-4,4 -4,-711 1041.95,-711 1041.95,4 -4,4"/>
<!-- place_8bfb4e1aa590eab8f08f837b97acf5803a5737ed -->
<g id="node1" class="node">
<title>place_8bfb4e1aa590eab8f08f837b97acf5803a5737ed</title>
<ellipse fill="lightblue" stroke="#333333" cx="45.96" cy="-364" rx="36" ry="36"/>
<text text-anchor="middle" x="45.96" y="-361.8" font-family="Arial" font-size="9.00">cart</text>
</g>
<!-- transition_b6589fc6ab0dc82cf12099d1c2d40ab994e8410c -->
<g id="node8" class="node">
<title>transition_b6589fc6ab0dc82cf12099d1c2d40ab994e8410c</title>
<polygon fill="none" stroke="#333333" points="199.92,-400 127.92,-400 127.92,-328 199.92,-328 199.92,-400"/>
<text text-anchor="middle" x="163.92" y="-361.8" font-family="Arial" font-size="9.00">address</text>
</g>
<!-- place_8bfb4e1aa590eab8f08f837b97acf5803a5737ed&#45;&gt;transition_b6589fc6ab0dc82cf12099d1c2d40ab994e8410c -->
<g id="edge1" class="edge">
<title>place_8bfb4e1aa590eab8f08f837b97acf5803a5737ed&#45;&gt;transition_b6589fc6ab0dc82cf12099d1c2d40ab994e8410c</title>
<path fill="none" stroke="#333333" d="M82.07,-364C94.78,-364 109.23,-364 122.38,-364"/>
<polygon fill="#333333" stroke="#333333" points="122.53,-365.75 127.53,-364 122.53,-362.25 122.53,-365.75"/>
</g>
<!-- place_74c70e83a9f58141487d73749193bf049153a472 -->
<g id="node2" class="node">
<title>place_74c70e83a9f58141487d73749193bf049153a472</title>
<ellipse fill="none" stroke="#333333" cx="276.42" cy="-428" rx="36" ry="36"/>
<text text-anchor="middle" x="276.42" y="-425.8" font-family="Arial" font-size="9.00">addressed</text>
</g>
<!-- transition_356a192b7913b04c54574d18c28d46e6395428ab -->
<g id="node9" class="node">
<title>transition_356a192b7913b04c54574d18c28d46e6395428ab</title>
<polygon fill="none" stroke="#333333" points="429.42,-464 357.42,-464 357.42,-392 429.42,-392 429.42,-464"/>
<text text-anchor="middle" x="393.42" y="-425.8" font-family="Arial" font-size="9.00">address</text>
</g>
<!-- place_74c70e83a9f58141487d73749193bf049153a472&#45;&gt;transition_356a192b7913b04c54574d18c28d46e6395428ab -->
<g id="edge3" class="edge">
<title>place_74c70e83a9f58141487d73749193bf049153a472&#45;&gt;transition_356a192b7913b04c54574d18c28d46e6395428ab</title>
<path fill="none" stroke="#333333" d="M311.92,-421.75C324.54,-421.17 338.92,-421.09 352.01,-421.52"/>
<polygon fill="#333333" stroke="#333333" points="352.08,-423.28 357.14,-421.72 352.21,-419.78 352.08,-423.28"/>
</g>
<!-- transition_c1dfd96eea8cc2b62785275bca38ac261256e278 -->
<g id="node14" class="node">
<title>transition_c1dfd96eea8cc2b62785275bca38ac261256e278</title>
<polygon fill="none" stroke="#333333" points="433.92,-368.5 352.92,-368.5 352.92,-287.5 433.92,-287.5 433.92,-368.5"/>
<text text-anchor="middle" x="393.42" y="-325.8" font-family="Arial" font-size="9.00">select_shipping</text>
</g>
<!-- place_74c70e83a9f58141487d73749193bf049153a472&#45;&gt;transition_c1dfd96eea8cc2b62785275bca38ac261256e278 -->
<g id="edge13" class="edge">
<title>place_74c70e83a9f58141487d73749193bf049153a472&#45;&gt;transition_c1dfd96eea8cc2b62785275bca38ac261256e278</title>
<path fill="none" stroke="#333333" d="M304.09,-404.81C317.43,-393.21 333.9,-378.89 349,-365.76"/>
<polygon fill="#333333" stroke="#333333" points="350.18,-367.05 352.8,-362.45 347.88,-364.41 350.18,-367.05"/>
</g>
<!-- place_b503304f0fe3229614f5e34f3e48fefa4dc7f5c2 -->
<g id="node3" class="node">
<title>place_b503304f0fe3229614f5e34f3e48fefa4dc7f5c2</title>
<ellipse fill="none" stroke="#333333" cx="517.43" cy="-320" rx="47.52" ry="47.52"/>
<text text-anchor="middle" x="517.43" y="-317.8" font-family="Arial" font-size="9.00">shipping_selected</text>
</g>
<!-- transition_da4b9237bacccdf19c0760cab7aec4a8359010b0 -->
<g id="node10" class="node">
<title>transition_da4b9237bacccdf19c0760cab7aec4a8359010b0</title>
<polygon fill="none" stroke="#333333" points="677.44,-577 605.44,-577 605.44,-505 677.44,-505 677.44,-577"/>
<text text-anchor="middle" x="641.44" y="-538.8" font-family="Arial" font-size="9.00">address</text>
</g>
<!-- place_b503304f0fe3229614f5e34f3e48fefa4dc7f5c2&#45;&gt;transition_da4b9237bacccdf19c0760cab7aec4a8359010b0 -->
<g id="edge5" class="edge">
<title>place_b503304f0fe3229614f5e34f3e48fefa4dc7f5c2&#45;&gt;transition_da4b9237bacccdf19c0760cab7aec4a8359010b0</title>
<path fill="none" stroke="#333333" d="M535.19,-364.49C549.97,-401.21 573.41,-453.92 600.94,-496 601.96,-497.57 603.04,-499.14 604.16,-500.71"/>
<polygon fill="#333333" stroke="#333333" points="602.83,-501.86 607.21,-504.84 605.65,-499.78 602.83,-501.86"/>
</g>
<!-- transition_902ba3cda1883801594b6e1b452790cc53948fda -->
<g id="node15" class="node">
<title>transition_902ba3cda1883801594b6e1b452790cc53948fda</title>
<polygon fill="none" stroke="#333333" points="681.94,-356.5 600.94,-356.5 600.94,-275.5 681.94,-275.5 681.94,-356.5"/>
<text text-anchor="middle" x="641.44" y="-313.8" font-family="Arial" font-size="9.00">select_shipping</text>
</g>
<!-- place_b503304f0fe3229614f5e34f3e48fefa4dc7f5c2&#45;&gt;transition_902ba3cda1883801594b6e1b452790cc53948fda -->
<g id="edge15" class="edge">
<title>place_b503304f0fe3229614f5e34f3e48fefa4dc7f5c2&#45;&gt;transition_902ba3cda1883801594b6e1b452790cc53948fda</title>
<path fill="none" stroke="#333333" d="M564.55,-311.92C574.67,-311.34 585.36,-311 595.43,-310.94"/>
<polygon fill="#333333" stroke="#333333" points="595.64,-312.69 600.63,-310.93 595.63,-309.19 595.64,-312.69"/>
</g>
<!-- transition_b1d5781111d84f7b3fe45a0852e59758cd7a87e5 -->
<g id="node18" class="node">
<title>transition_b1d5781111d84f7b3fe45a0852e59758cd7a87e5</title>
<polygon fill="none" stroke="#333333" points="678.44,-487 604.44,-487 604.44,-413 678.44,-413 678.44,-487"/>
<text text-anchor="middle" x="641.44" y="-447.8" font-family="Arial" font-size="9.00">skip_payment</text>
</g>
<!-- place_b503304f0fe3229614f5e34f3e48fefa4dc7f5c2&#45;&gt;transition_b1d5781111d84f7b3fe45a0852e59758cd7a87e5 -->
<g id="edge21" class="edge">
<title>place_b503304f0fe3229614f5e34f3e48fefa4dc7f5c2&#45;&gt;transition_b1d5781111d84f7b3fe45a0852e59758cd7a87e5</title>
<path fill="none" stroke="#333333" d="M550.48,-354.16C566.24,-370.94 585.34,-391.3 601.89,-408.93"/>
<polygon fill="#333333" stroke="#333333" points="600.9,-410.43 605.6,-412.88 603.45,-408.03 600.9,-410.43"/>
</g>
<!-- transition_fa35e192121eabf3dabf9f5ea6abdbcbc107ac3b -->
<g id="node22" class="node">
<title>transition_fa35e192121eabf3dabf9f5ea6abdbcbc107ac3b</title>
<polygon fill="none" stroke="#333333" points="681.94,-214.5 600.94,-214.5 600.94,-133.5 681.94,-133.5 681.94,-214.5"/>
<text text-anchor="middle" x="641.44" y="-171.8" font-family="Arial" font-size="9.00">select_payment</text>
</g>
<!-- place_b503304f0fe3229614f5e34f3e48fefa4dc7f5c2&#45;&gt;transition_fa35e192121eabf3dabf9f5ea6abdbcbc107ac3b -->
<g id="edge29" class="edge">
<title>place_b503304f0fe3229614f5e34f3e48fefa4dc7f5c2&#45;&gt;transition_fa35e192121eabf3dabf9f5ea6abdbcbc107ac3b</title>
<path fill="none" stroke="#333333" d="M548.59,-283.91C565.13,-264.12 585.78,-239.41 603.3,-218.44"/>
<polygon fill="#333333" stroke="#333333" points="604.67,-219.52 606.54,-214.56 601.99,-217.28 604.67,-219.52"/>
</g>
<!-- place_d32f196982e3fb5b5b2c59e1c5e0d888fb0fbac0 -->
<g id="node4" class="node">
<title>place_d32f196982e3fb5b5b2c59e1c5e0d888fb0fbac0</title>
<ellipse fill="none" stroke="#333333" cx="45.96" cy="-492" rx="45.92" ry="45.92"/>
<text text-anchor="middle" x="45.96" y="-489.8" font-family="Arial" font-size="9.00">shipping_skipped</text>
</g>
<!-- transition_77de68daecd823babbb58edb1c8e14d7106e83bb -->
<g id="node11" class="node">
<title>transition_77de68daecd823babbb58edb1c8e14d7106e83bb</title>
<polygon fill="none" stroke="#333333" points="199.92,-528 127.92,-528 127.92,-456 199.92,-456 199.92,-528"/>
<text text-anchor="middle" x="163.92" y="-489.8" font-family="Arial" font-size="9.00">address</text>
</g>
<!-- place_d32f196982e3fb5b5b2c59e1c5e0d888fb0fbac0&#45;&gt;transition_77de68daecd823babbb58edb1c8e14d7106e83bb -->
<g id="edge7" class="edge">
<title>place_d32f196982e3fb5b5b2c59e1c5e0d888fb0fbac0&#45;&gt;transition_77de68daecd823babbb58edb1c8e14d7106e83bb</title>
<path fill="none" stroke="#333333" d="M92.12,-492C102.2,-492 112.81,-492 122.67,-492"/>
<polygon fill="#333333" stroke="#333333" points="122.75,-493.75 127.75,-492 122.75,-490.25 122.75,-493.75"/>
</g>
<!-- transition_17ba0791499db908433b80f37c5fbc89b870084b -->
<g id="node19" class="node">
<title>transition_17ba0791499db908433b80f37c5fbc89b870084b</title>
<polygon fill="none" stroke="#333333" points="554.43,-707 480.43,-707 480.43,-633 554.43,-633 554.43,-707"/>
<text text-anchor="middle" x="517.43" y="-667.8" font-family="Arial" font-size="9.00">skip_payment</text>
</g>
<!-- place_d32f196982e3fb5b5b2c59e1c5e0d888fb0fbac0&#45;&gt;transition_17ba0791499db908433b80f37c5fbc89b870084b -->
<g id="edge23" class="edge">
<title>place_d32f196982e3fb5b5b2c59e1c5e0d888fb0fbac0&#45;&gt;transition_17ba0791499db908433b80f37c5fbc89b870084b</title>
<path fill="none" stroke="#333333" d="M85.85,-515.25C98.98,-522.66 113.88,-530.59 127.92,-537 250.15,-592.82 402.99,-638.54 475.11,-658.77"/>
<polygon fill="#333333" stroke="#333333" points="474.87,-660.52 480.16,-660.19 475.82,-657.15 474.87,-660.52"/>
</g>
<!-- transition_bd307a3ec329e10a2cff8fb87480823da114f8f4 -->
<g id="node21" class="node">
<title>transition_bd307a3ec329e10a2cff8fb87480823da114f8f4</title>
<polygon fill="none" stroke="#333333" points="316.92,-235.5 235.92,-235.5 235.92,-154.5 316.92,-154.5 316.92,-235.5"/>
<text text-anchor="middle" x="276.42" y="-192.8" font-family="Arial" font-size="9.00">select_payment</text>
</g>
<!-- place_d32f196982e3fb5b5b2c59e1c5e0d888fb0fbac0&#45;&gt;transition_bd307a3ec329e10a2cff8fb87480823da114f8f4 -->
<g id="edge27" class="edge">
<title>place_d32f196982e3fb5b5b2c59e1c5e0d888fb0fbac0&#45;&gt;transition_bd307a3ec329e10a2cff8fb87480823da114f8f4</title>
<path fill="none" stroke="#333333" d="M86.4,-469.86C99.57,-462.52 114.35,-454.35 127.92,-447 159.73,-429.77 176.27,-436.39 199.92,-409 241.65,-360.66 260.8,-287.74 269.24,-240.75"/>
<polygon fill="#333333" stroke="#333333" points="270.98,-240.94 270.12,-235.72 267.54,-240.34 270.98,-240.94"/>
</g>
<!-- place_6f3aef6e8830c76c40e1ef96ea03bbd9ae20edc4 -->
<g id="node5" class="node">
<title>place_6f3aef6e8830c76c40e1ef96ea03bbd9ae20edc4</title>
<ellipse fill="none" stroke="#333333" cx="765.44" cy="-171" rx="47.52" ry="47.52"/>
<text text-anchor="middle" x="765.44" y="-168.8" font-family="Arial" font-size="9.00">payment_selected</text>
</g>
<!-- transition_1b6453892473a467d07372d45eb05abc2031647a -->
<g id="node12" class="node">
<title>transition_1b6453892473a467d07372d45eb05abc2031647a</title>
<polygon fill="none" stroke="#333333" points="925.45,-72 853.45,-72 853.45,0 925.45,0 925.45,-72"/>
<text text-anchor="middle" x="889.45" y="-33.8" font-family="Arial" font-size="9.00">address</text>
</g>
<!-- place_6f3aef6e8830c76c40e1ef96ea03bbd9ae20edc4&#45;&gt;transition_1b6453892473a467d07372d45eb05abc2031647a -->
<g id="edge9" class="edge">
<title>place_6f3aef6e8830c76c40e1ef96ea03bbd9ae20edc4&#45;&gt;transition_1b6453892473a467d07372d45eb05abc2031647a</title>
<path fill="none" stroke="#333333" d="M797.86,-136.23C814.55,-117.78 835.12,-95.01 852.44,-75.84"/>
<polygon fill="#333333" stroke="#333333" points="853.81,-76.94 855.86,-72.06 851.21,-74.6 853.81,-76.94"/>
</g>
<!-- transition_fe5dbbcea5ce7e2988b8c69bcfdfde8904aabc1f -->
<g id="node16" class="node">
<title>transition_fe5dbbcea5ce7e2988b8c69bcfdfde8904aabc1f</title>
<polygon fill="none" stroke="#333333" points="929.95,-361.5 848.95,-361.5 848.95,-280.5 929.95,-280.5 929.95,-361.5"/>
<text text-anchor="middle" x="889.45" y="-318.8" font-family="Arial" font-size="9.00">select_shipping</text>
</g>
<!-- place_6f3aef6e8830c76c40e1ef96ea03bbd9ae20edc4&#45;&gt;transition_fe5dbbcea5ce7e2988b8c69bcfdfde8904aabc1f -->
<g id="edge17" class="edge">
<title>place_6f3aef6e8830c76c40e1ef96ea03bbd9ae20edc4&#45;&gt;transition_fe5dbbcea5ce7e2988b8c69bcfdfde8904aabc1f</title>
<path fill="none" stroke="#333333" d="M796.29,-207.69C813.16,-228.43 834.37,-254.51 852.2,-276.42"/>
<polygon fill="#333333" stroke="#333333" points="850.97,-277.69 855.48,-280.46 853.68,-275.48 850.97,-277.69"/>
</g>
<!-- transition_7b52009b64fd0a2a49e6d8a939753077792b0554 -->
<g id="node20" class="node">
<title>transition_7b52009b64fd0a2a49e6d8a939753077792b0554</title>
<polygon fill="none" stroke="#333333" points="929.95,-171.5 848.95,-171.5 848.95,-90.5 929.95,-90.5 929.95,-171.5"/>
<text text-anchor="middle" x="889.45" y="-128.8" font-family="Arial" font-size="9.00">select_payment</text>
</g>
<!-- place_6f3aef6e8830c76c40e1ef96ea03bbd9ae20edc4&#45;&gt;transition_7b52009b64fd0a2a49e6d8a939753077792b0554 -->
<g id="edge25" class="edge">
<title>place_6f3aef6e8830c76c40e1ef96ea03bbd9ae20edc4&#45;&gt;transition_7b52009b64fd0a2a49e6d8a939753077792b0554</title>
<path fill="none" stroke="#333333" d="M808.77,-150.66C820.1,-146.59 832.37,-142.54 843.81,-139.11"/>
<polygon fill="#333333" stroke="#333333" points="844.36,-140.77 848.66,-137.67 843.37,-137.41 844.36,-140.77"/>
</g>
<!-- transition_f1abd670358e036c31296e66b3b66c382ac00812 -->
<g id="node23" class="node">
<title>transition_f1abd670358e036c31296e66b3b66c382ac00812</title>
<polygon fill="none" stroke="#333333" points="925.45,-262 853.45,-262 853.45,-190 925.45,-190 925.45,-262"/>
<text text-anchor="middle" x="889.45" y="-223.8" font-family="Arial" font-size="9.00">complete</text>
</g>
<!-- place_6f3aef6e8830c76c40e1ef96ea03bbd9ae20edc4&#45;&gt;transition_f1abd670358e036c31296e66b3b66c382ac00812 -->
<g id="edge31" class="edge">
<title>place_6f3aef6e8830c76c40e1ef96ea03bbd9ae20edc4&#45;&gt;transition_f1abd670358e036c31296e66b3b66c382ac00812</title>
<path fill="none" stroke="#333333" d="M809.12,-190.24C821.97,-196.03 836.02,-202.36 848.68,-208.07"/>
<polygon fill="#333333" stroke="#333333" points="847.99,-209.68 853.27,-210.14 849.43,-206.49 847.99,-209.68"/>
</g>
<!-- place_187955bd49ccea4edc51b03b9f2895d2b49100ce -->
<g id="node6" class="node">
<title>place_187955bd49ccea4edc51b03b9f2895d2b49100ce</title>
<ellipse fill="none" stroke="#333333" cx="765.44" cy="-515" rx="45.92" ry="45.92"/>
<text text-anchor="middle" x="765.44" y="-512.8" font-family="Arial" font-size="9.00">payment_skipped</text>
</g>
<!-- transition_ac3478d69a3c81fa62e60f5c3696165a4e5e6ac4 -->
<g id="node13" class="node">
<title>transition_ac3478d69a3c81fa62e60f5c3696165a4e5e6ac4</title>
<polygon fill="none" stroke="#333333" points="925.45,-641 853.45,-641 853.45,-569 925.45,-569 925.45,-641"/>
<text text-anchor="middle" x="889.45" y="-602.8" font-family="Arial" font-size="9.00">address</text>
</g>
<!-- place_187955bd49ccea4edc51b03b9f2895d2b49100ce&#45;&gt;transition_ac3478d69a3c81fa62e60f5c3696165a4e5e6ac4 -->
<g id="edge11" class="edge">
<title>place_187955bd49ccea4edc51b03b9f2895d2b49100ce&#45;&gt;transition_ac3478d69a3c81fa62e60f5c3696165a4e5e6ac4</title>
<path fill="none" stroke="#333333" d="M803.05,-542C817.55,-552.7 834.25,-565.02 849.02,-575.91"/>
<polygon fill="#333333" stroke="#333333" points="848.07,-577.38 853.13,-578.94 850.15,-574.57 848.07,-577.38"/>
</g>
<!-- transition_0ade7c2cf97f75d009975f4d720d1fa6c19f4897 -->
<g id="node17" class="node">
<title>transition_0ade7c2cf97f75d009975f4d720d1fa6c19f4897</title>
<polygon fill="none" stroke="#333333" points="929.95,-460.5 848.95,-460.5 848.95,-379.5 929.95,-379.5 929.95,-460.5"/>
<text text-anchor="middle" x="889.45" y="-417.8" font-family="Arial" font-size="9.00">select_shipping</text>
</g>
<!-- place_187955bd49ccea4edc51b03b9f2895d2b49100ce&#45;&gt;transition_0ade7c2cf97f75d009975f4d720d1fa6c19f4897 -->
<g id="edge19" class="edge">
<title>place_187955bd49ccea4edc51b03b9f2895d2b49100ce&#45;&gt;transition_0ade7c2cf97f75d009975f4d720d1fa6c19f4897</title>
<path fill="none" stroke="#333333" d="M802.39,-487.01C815.64,-476.69 830.8,-464.89 844.67,-454.09"/>
<polygon fill="#333333" stroke="#333333" points="846.05,-455.23 848.92,-450.78 843.9,-452.47 846.05,-455.23"/>
</g>
<!-- transition_1574bddb75c78a6fd2251d61e2993b5146201319 -->
<g id="node24" class="node">
<title>transition_1574bddb75c78a6fd2251d61e2993b5146201319</title>
<polygon fill="none" stroke="#333333" points="925.45,-551 853.45,-551 853.45,-479 925.45,-479 925.45,-551"/>
<text text-anchor="middle" x="889.45" y="-512.8" font-family="Arial" font-size="9.00">complete</text>
</g>
<!-- place_187955bd49ccea4edc51b03b9f2895d2b49100ce&#45;&gt;transition_1574bddb75c78a6fd2251d61e2993b5146201319 -->
<g id="edge33" class="edge">
<title>place_187955bd49ccea4edc51b03b9f2895d2b49100ce&#45;&gt;transition_1574bddb75c78a6fd2251d61e2993b5146201319</title>
<path fill="none" stroke="#333333" d="M811.53,-515C823.42,-515 836.18,-515 847.82,-515"/>
<polygon fill="#333333" stroke="#333333" points="848.08,-516.75 853.08,-515 848.08,-513.25 848.08,-516.75"/>
</g>
<!-- place_231e564db4cdb44a6545583a8d460edc7f9f97ca -->
<g id="node7" class="node">
<title>place_231e564db4cdb44a6545583a8d460edc7f9f97ca</title>
<ellipse fill="none" stroke="#333333" cx="1001.95" cy="-370" rx="36" ry="36"/>
<text text-anchor="middle" x="1001.95" y="-367.8" font-family="Arial" font-size="9.00">completed</text>
</g>
<!-- transition_b6589fc6ab0dc82cf12099d1c2d40ab994e8410c&#45;&gt;place_74c70e83a9f58141487d73749193bf049153a472 -->
<g id="edge2" class="edge">
<title>transition_b6589fc6ab0dc82cf12099d1c2d40ab994e8410c&#45;&gt;place_74c70e83a9f58141487d73749193bf049153a472</title>
<path fill="none" stroke="#333333" d="M200.19,-384.43C213.01,-391.85 227.5,-400.24 240.31,-407.67"/>
<polygon fill="#333333" stroke="#333333" points="239.74,-409.36 244.95,-410.35 241.5,-406.33 239.74,-409.36"/>
</g>
<!-- transition_356a192b7913b04c54574d18c28d46e6395428ab&#45;&gt;place_74c70e83a9f58141487d73749193bf049153a472 -->
<g id="edge4" class="edge">
<title>transition_356a192b7913b04c54574d18c28d46e6395428ab&#45;&gt;place_74c70e83a9f58141487d73749193bf049153a472</title>
<path fill="none" stroke="#333333" d="M357.14,-434.28C344.46,-434.84 330.06,-434.9 317.03,-434.45"/>
<polygon fill="#333333" stroke="#333333" points="316.99,-432.7 311.92,-434.25 316.85,-436.2 316.99,-432.7"/>
</g>
<!-- transition_da4b9237bacccdf19c0760cab7aec4a8359010b0&#45;&gt;place_74c70e83a9f58141487d73749193bf049153a472 -->
<g id="edge6" class="edge">
<title>transition_da4b9237bacccdf19c0760cab7aec4a8359010b0&#45;&gt;place_74c70e83a9f58141487d73749193bf049153a472</title>
<path fill="none" stroke="#333333" d="M605.31,-536.23C550.06,-527.95 440.16,-508.34 352.92,-473 338.43,-467.13 323.45,-458.76 310.69,-450.82"/>
<polygon fill="#333333" stroke="#333333" points="311.62,-449.33 306.46,-448.15 309.75,-452.29 311.62,-449.33"/>
</g>
<!-- transition_77de68daecd823babbb58edb1c8e14d7106e83bb&#45;&gt;place_74c70e83a9f58141487d73749193bf049153a472 -->
<g id="edge8" class="edge">
<title>transition_77de68daecd823babbb58edb1c8e14d7106e83bb&#45;&gt;place_74c70e83a9f58141487d73749193bf049153a472</title>
<path fill="none" stroke="#333333" d="M200.19,-471.57C213.01,-464.15 227.5,-455.76 240.31,-448.33"/>
<polygon fill="#333333" stroke="#333333" points="241.5,-449.67 244.95,-445.65 239.74,-446.64 241.5,-449.67"/>
</g>
<!-- transition_1b6453892473a467d07372d45eb05abc2031647a&#45;&gt;place_74c70e83a9f58141487d73749193bf049153a472 -->
<g id="edge10" class="edge">
<title>transition_1b6453892473a467d07372d45eb05abc2031647a&#45;&gt;place_74c70e83a9f58141487d73749193bf049153a472</title>
<path fill="none" stroke="#333333" d="M853.24,-49.98C806.04,-67.43 719.3,-95 642.44,-95 516.43,-95 516.43,-95 516.43,-95 373.6,-95 307.82,-299.68 286.06,-388.1"/>
<polygon fill="#333333" stroke="#333333" points="284.36,-387.72 284.88,-392.99 287.76,-388.55 284.36,-387.72"/>
</g>
<!-- transition_ac3478d69a3c81fa62e60f5c3696165a4e5e6ac4&#45;&gt;place_74c70e83a9f58141487d73749193bf049153a472 -->
<g id="edge12" class="edge">
<title>transition_ac3478d69a3c81fa62e60f5c3696165a4e5e6ac4&#45;&gt;place_74c70e83a9f58141487d73749193bf049153a472</title>
<path fill="none" stroke="#333333" d="M853.42,-605C805.7,-605 717.61,-605 642.44,-605 516.43,-605 516.43,-605 516.43,-605 421.26,-605 339.23,-513.24 300.76,-461.86"/>
<polygon fill="#333333" stroke="#333333" points="302,-460.6 297.62,-457.63 299.19,-462.68 302,-460.6"/>
</g>
<!-- transition_c1dfd96eea8cc2b62785275bca38ac261256e278&#45;&gt;place_b503304f0fe3229614f5e34f3e48fefa4dc7f5c2 -->
<g id="edge14" class="edge">
<title>transition_c1dfd96eea8cc2b62785275bca38ac261256e278&#45;&gt;place_b503304f0fe3229614f5e34f3e48fefa4dc7f5c2</title>
<path fill="none" stroke="#333333" d="M434.03,-325.4C443.84,-324.76 454.49,-324.06 464.78,-323.39"/>
<polygon fill="#333333" stroke="#333333" points="464.92,-325.13 469.79,-323.06 464.69,-321.64 464.92,-325.13"/>
</g>
<!-- transition_902ba3cda1883801594b6e1b452790cc53948fda&#45;&gt;place_b503304f0fe3229614f5e34f3e48fefa4dc7f5c2 -->
<g id="edge16" class="edge">
<title>transition_902ba3cda1883801594b6e1b452790cc53948fda&#45;&gt;place_b503304f0fe3229614f5e34f3e48fefa4dc7f5c2</title>
<path fill="none" stroke="#333333" d="M600.85,-323.66C591,-324.35 580.28,-324.81 569.94,-324.99"/>
<polygon fill="#333333" stroke="#333333" points="569.88,-323.24 564.9,-325.05 569.92,-326.74 569.88,-323.24"/>
</g>
<!-- transition_fe5dbbcea5ce7e2988b8c69bcfdfde8904aabc1f&#45;&gt;place_b503304f0fe3229614f5e34f3e48fefa4dc7f5c2 -->
<g id="edge18" class="edge">
<title>transition_fe5dbbcea5ce7e2988b8c69bcfdfde8904aabc1f&#45;&gt;place_b503304f0fe3229614f5e34f3e48fefa4dc7f5c2</title>
<path fill="none" stroke="#333333" d="M848.79,-301.6C792.77,-276.84 687.63,-240.15 600.94,-266 586.05,-270.44 571.35,-278.52 558.57,-287.09"/>
<polygon fill="#333333" stroke="#333333" points="557.45,-285.74 554.32,-290.02 559.43,-288.63 557.45,-285.74"/>
</g>
<!-- transition_0ade7c2cf97f75d009975f4d720d1fa6c19f4897&#45;&gt;place_b503304f0fe3229614f5e34f3e48fefa4dc7f5c2 -->
<g id="edge20" class="edge">
<title>transition_0ade7c2cf97f75d009975f4d720d1fa6c19f4897&#45;&gt;place_b503304f0fe3229614f5e34f3e48fefa4dc7f5c2</title>
<path fill="none" stroke="#333333" d="M848.8,-416.63C792.34,-410.93 686.19,-396.84 600.94,-366 587.89,-361.28 574.45,-354.65 562.31,-347.9"/>
<polygon fill="#333333" stroke="#333333" points="563.11,-346.34 557.9,-345.41 561.39,-349.39 563.11,-346.34"/>
</g>
<!-- transition_b1d5781111d84f7b3fe45a0852e59758cd7a87e5&#45;&gt;place_187955bd49ccea4edc51b03b9f2895d2b49100ce -->
<g id="edge22" class="edge">
<title>transition_b1d5781111d84f7b3fe45a0852e59758cd7a87e5&#45;&gt;place_187955bd49ccea4edc51b03b9f2895d2b49100ce</title>
<path fill="none" stroke="#333333" d="M678.71,-469.33C691.59,-476.18 706.23,-483.99 719.73,-491.18"/>
<polygon fill="#333333" stroke="#333333" points="719.02,-492.78 724.25,-493.59 720.66,-489.69 719.02,-492.78"/>
</g>
<!-- transition_17ba0791499db908433b80f37c5fbc89b870084b&#45;&gt;place_187955bd49ccea4edc51b03b9f2895d2b49100ce -->
<g id="edge24" class="edge">
<title>transition_17ba0791499db908433b80f37c5fbc89b870084b&#45;&gt;place_187955bd49ccea4edc51b03b9f2895d2b49100ce</title>
<path fill="none" stroke="#333333" d="M554.55,-654.44C588.62,-639.08 640.51,-613.89 681.94,-586 697.7,-575.39 713.81,-562.16 727.56,-550.01"/>
<polygon fill="#333333" stroke="#333333" points="728.8,-551.24 731.37,-546.61 726.47,-548.63 728.8,-551.24"/>
</g>
<!-- transition_7b52009b64fd0a2a49e6d8a939753077792b0554&#45;&gt;place_6f3aef6e8830c76c40e1ef96ea03bbd9ae20edc4 -->
<g id="edge26" class="edge">
<title>transition_7b52009b64fd0a2a49e6d8a939753077792b0554&#45;&gt;place_6f3aef6e8830c76c40e1ef96ea03bbd9ae20edc4</title>
<path fill="none" stroke="#333333" d="M848.82,-150.36C838.69,-154.06 827.66,-157.77 817.06,-161.07"/>
<polygon fill="#333333" stroke="#333333" points="816.49,-159.41 812.22,-162.55 817.52,-162.76 816.49,-159.41"/>
</g>
<!-- transition_bd307a3ec329e10a2cff8fb87480823da114f8f4&#45;&gt;place_6f3aef6e8830c76c40e1ef96ea03bbd9ae20edc4 -->
<g id="edge28" class="edge">
<title>transition_bd307a3ec329e10a2cff8fb87480823da114f8f4&#45;&gt;place_6f3aef6e8830c76c40e1ef96ea03bbd9ae20edc4</title>
<path fill="none" stroke="#333333" d="M292.49,-154.26C304.52,-128.19 324.16,-96.45 352.92,-81 475.15,-15.34 642.23,-96.43 720.55,-142.82"/>
<polygon fill="#333333" stroke="#333333" points="719.94,-144.49 725.13,-145.55 721.73,-141.49 719.94,-144.49"/>
</g>
<!-- transition_fa35e192121eabf3dabf9f5ea6abdbcbc107ac3b&#45;&gt;place_6f3aef6e8830c76c40e1ef96ea03bbd9ae20edc4 -->
<g id="edge30" class="edge">
<title>transition_fa35e192121eabf3dabf9f5ea6abdbcbc107ac3b&#45;&gt;place_6f3aef6e8830c76c40e1ef96ea03bbd9ae20edc4</title>
<path fill="none" stroke="#333333" d="M682.05,-173.03C691.86,-172.78 702.51,-172.52 712.79,-172.27"/>
<polygon fill="#333333" stroke="#333333" points="712.85,-174.02 717.81,-172.15 712.77,-170.52 712.85,-174.02"/>
</g>
<!-- transition_f1abd670358e036c31296e66b3b66c382ac00812&#45;&gt;place_231e564db4cdb44a6545583a8d460edc7f9f97ca -->
<g id="edge32" class="edge">
<title>transition_f1abd670358e036c31296e66b3b66c382ac00812&#45;&gt;place_231e564db4cdb44a6545583a8d460edc7f9f97ca</title>
<path fill="none" stroke="#333333" d="M922.67,-262.09C925.17,-265.07 927.63,-268.07 929.95,-271 946.71,-292.09 964.37,-316.7 977.88,-336.11"/>
<polygon fill="#333333" stroke="#333333" points="976.58,-337.31 980.87,-340.42 979.46,-335.32 976.58,-337.31"/>
</g>
<!-- transition_1574bddb75c78a6fd2251d61e2993b5146201319&#45;&gt;place_231e564db4cdb44a6545583a8d460edc7f9f97ca -->
<g id="edge34" class="edge">
<title>transition_1574bddb75c78a6fd2251d61e2993b5146201319&#45;&gt;place_231e564db4cdb44a6545583a8d460edc7f9f97ca</title>
<path fill="none" stroke="#333333" d="M922.69,-478.92C925.18,-475.94 927.63,-472.94 929.95,-470 946.89,-448.57 964.69,-423.5 978.22,-403.83"/>
<polygon fill="#333333" stroke="#333333" points="979.83,-404.57 981.22,-399.46 976.95,-402.59 979.83,-404.57"/>
</g>
</g>
</svg>
