<?xml version="1.0" encoding="UTF-8" standalone="no"?>
<!DOCTYPE svg PUBLIC "-//W3C//DTD SVG 1.1//EN"
 "http://www.w3.org/Graphics/SVG/1.1/DTD/svg11.dtd">
<!-- Generated by graphviz version 2.43.0 (0)
 -->
<!-- Title: workflow Pages: 1 -->
<svg width="1508pt" height="695pt"
 viewBox="0.00 0.00 1507.87 694.50" xmlns="http://www.w3.org/2000/svg" xmlns:xlink="http://www.w3.org/1999/xlink">
<g id="graph0" class="graph" transform="scale(1 1) rotate(0) translate(4 690.5)">
<title>workflow</title>
<polygon fill="white" stroke="transparent" points="-4,4 -4,-690.5 1503.87,-690.5 1503.87,4 -4,4"/>
<!-- place_8bfb4e1aa590eab8f08f837b97acf5803a5737ed -->
<g id="node1" class="node">
<title>place_8bfb4e1aa590eab8f08f837b97acf5803a5737ed</title>
<ellipse fill="lightblue" stroke="#333333" cx="36" cy="-351.5" rx="36" ry="36"/>
<text text-anchor="middle" x="36" y="-349.3" font-family="Arial" font-size="9.00">cart</text>
</g>
<!-- transition_b6589fc6ab0dc82cf12099d1c2d40ab994e8410c -->
<g id="node9" class="node">
<title>transition_b6589fc6ab0dc82cf12099d1c2d40ab994e8410c</title>
<polygon fill="none" stroke="#333333" points="180,-387.5 108,-387.5 108,-315.5 180,-315.5 180,-387.5"/>
<text text-anchor="middle" x="144" y="-349.3" font-family="Arial" font-size="9.00">address</text>
</g>
<!-- place_8bfb4e1aa590eab8f08f837b97acf5803a5737ed&#45;&gt;transition_b6589fc6ab0dc82cf12099d1c2d40ab994e8410c -->
<g id="edge1" class="edge">
<title>place_8bfb4e1aa590eab8f08f837b97acf5803a5737ed&#45;&gt;transition_b6589fc6ab0dc82cf12099d1c2d40ab994e8410c</title>
<path fill="none" stroke="#333333" d="M72,-351.5C81.76,-351.5 92.44,-351.5 102.49,-351.5"/>
<polygon fill="#333333" stroke="#333333" points="102.67,-353.25 107.67,-351.5 102.67,-349.75 102.67,-353.25"/>
</g>
<!-- place_74c70e83a9f58141487d73749193bf049153a472 -->
<g id="node2" class="node">
<title>place_74c70e83a9f58141487d73749193bf049153a472</title>
<ellipse fill="none" stroke="#333333" cx="252" cy="-351.5" rx="36" ry="36"/>
<text text-anchor="middle" x="252" y="-349.3" font-family="Arial" font-size="9.00">addressed</text>
</g>
<!-- transition_356a192b7913b04c54574d18c28d46e6395428ab -->
<g id="node10" class="node">
<title>transition_356a192b7913b04c54574d18c28d46e6395428ab</title>
<polygon fill="none" stroke="#333333" points="404.5,-606.5 332.5,-606.5 332.5,-534.5 404.5,-534.5 404.5,-606.5"/>
<text text-anchor="middle" x="368.5" y="-568.3" font-family="Arial" font-size="9.00">address</text>
</g>
<!-- place_74c70e83a9f58141487d73749193bf049153a472&#45;&gt;transition_356a192b7913b04c54574d18c28d46e6395428ab -->
<g id="edge3" class="edge">
<title>place_74c70e83a9f58141487d73749193bf049153a472&#45;&gt;transition_356a192b7913b04c54574d18c28d46e6395428ab</title>
<path fill="none" stroke="#333333" d="M265.85,-384.73C278.06,-418.21 298.35,-470.3 324,-511.5 327.95,-517.85 332.7,-524.2 337.59,-530.28"/>
<polygon fill="#333333" stroke="#333333" points="336.47,-531.68 340.99,-534.45 339.18,-529.47 336.47,-531.68"/>
</g>
<!-- transition_c1dfd96eea8cc2b62785275bca38ac261256e278 -->
<g id="node15" class="node">
<title>transition_c1dfd96eea8cc2b62785275bca38ac261256e278</title>
<polygon fill="none" stroke="#333333" points="405.5,-457.5 331.5,-457.5 331.5,-383.5 405.5,-383.5 405.5,-457.5"/>
<text text-anchor="middle" x="368.5" y="-418.3" font-family="Arial" font-size="9.00">skip_shipping</text>
</g>
<!-- place_74c70e83a9f58141487d73749193bf049153a472&#45;&gt;transition_c1dfd96eea8cc2b62785275bca38ac261256e278 -->
<g id="edge13" class="edge">
<title>place_74c70e83a9f58141487d73749193bf049153a472&#45;&gt;transition_c1dfd96eea8cc2b62785275bca38ac261256e278</title>
<path fill="none" stroke="#333333" d="M283.38,-369.81C296.71,-377.84 312.55,-387.39 326.88,-396.02"/>
<polygon fill="#333333" stroke="#333333" points="326.08,-397.58 331.27,-398.67 327.89,-394.59 326.08,-397.58"/>
</g>
<!-- transition_902ba3cda1883801594b6e1b452790cc53948fda -->
<g id="node16" class="node">
<title>transition_902ba3cda1883801594b6e1b452790cc53948fda</title>
<polygon fill="none" stroke="#333333" points="773.38,-323 692.38,-323 692.38,-242 773.38,-242 773.38,-323"/>
<text text-anchor="middle" x="732.88" y="-280.3" font-family="Arial" font-size="9.00">select_shipping</text>
</g>
<!-- place_74c70e83a9f58141487d73749193bf049153a472&#45;&gt;transition_902ba3cda1883801594b6e1b452790cc53948fda -->
<g id="edge15" class="edge">
<title>place_74c70e83a9f58141487d73749193bf049153a472&#45;&gt;transition_902ba3cda1883801594b6e1b452790cc53948fda</title>
<path fill="none" stroke="#333333" d="M287.59,-344.24C299.14,-341.94 312.1,-339.47 324,-337.5 455.31,-315.72 611.49,-296.52 686.82,-287.67"/>
<polygon fill="#333333" stroke="#333333" points="687.34,-289.37 692.1,-287.05 686.93,-285.9 687.34,-289.37"/>
</g>
<!-- transition_9e6a55b6b4563e652a23be9d623ca5055c356940 -->
<g id="node27" class="node">
<title>transition_9e6a55b6b4563e652a23be9d623ca5055c356940</title>
<polygon fill="none" stroke="#333333" points="413,-89 324,-89 324,0 413,0 413,-89"/>
<text text-anchor="middle" x="368.5" y="-42.3" font-family="Arial" font-size="9.00">custom_transition</text>
</g>
<!-- place_74c70e83a9f58141487d73749193bf049153a472&#45;&gt;transition_9e6a55b6b4563e652a23be9d623ca5055c356940 -->
<g id="edge37" class="edge">
<title>place_74c70e83a9f58141487d73749193bf049153a472&#45;&gt;transition_9e6a55b6b4563e652a23be9d623ca5055c356940</title>
<path fill="none" stroke="#333333" d="M259.04,-315.97C268.35,-266.47 288.92,-174.83 324,-103.5 325.62,-100.2 327.43,-96.9 329.36,-93.63"/>
<polygon fill="#333333" stroke="#333333" points="330.96,-94.38 332.07,-89.2 327.97,-92.55 330.96,-94.38"/>
</g>
<!-- place_b503304f0fe3229614f5e34f3e48fefa4dc7f5c2 -->
<g id="node3" class="node">
<title>place_b503304f0fe3229614f5e34f3e48fefa4dc7f5c2</title>
<ellipse fill="none" stroke="#333333" cx="979.35" cy="-313.5" rx="47.52" ry="47.52"/>
<text text-anchor="middle" x="979.35" y="-311.3" font-family="Arial" font-size="9.00">shipping_selected</text>
</g>
<!-- transition_da4b9237bacccdf19c0760cab7aec4a8359010b0 -->
<g id="node11" class="node">
<title>transition_da4b9237bacccdf19c0760cab7aec4a8359010b0</title>
<polygon fill="none" stroke="#333333" points="1139.35,-217.5 1067.35,-217.5 1067.35,-145.5 1139.35,-145.5 1139.35,-217.5"/>
<text text-anchor="middle" x="1103.35" y="-179.3" font-family="Arial" font-size="9.00">address</text>
</g>
<!-- place_b503304f0fe3229614f5e34f3e48fefa4dc7f5c2&#45;&gt;transition_da4b9237bacccdf19c0760cab7aec4a8359010b0 -->
<g id="edge5" class="edge">
<title>place_b503304f0fe3229614f5e34f3e48fefa4dc7f5c2&#45;&gt;transition_da4b9237bacccdf19c0760cab7aec4a8359010b0</title>
<path fill="none" stroke="#333333" d="M1012.4,-278.82C1028.55,-261.35 1048.22,-240.07 1065.04,-221.87"/>
<polygon fill="#333333" stroke="#333333" points="1066.7,-222.65 1068.81,-217.79 1064.13,-220.28 1066.7,-222.65"/>
</g>
<!-- transition_fe5dbbcea5ce7e2988b8c69bcfdfde8904aabc1f -->
<g id="node17" class="node">
<title>transition_fe5dbbcea5ce7e2988b8c69bcfdfde8904aabc1f</title>
<polygon fill="none" stroke="#333333" points="1143.85,-317 1062.85,-317 1062.85,-236 1143.85,-236 1143.85,-317"/>
<text text-anchor="middle" x="1103.35" y="-274.3" font-family="Arial" font-size="9.00">select_shipping</text>
</g>
<!-- place_b503304f0fe3229614f5e34f3e48fefa4dc7f5c2&#45;&gt;transition_fe5dbbcea5ce7e2988b8c69bcfdfde8904aabc1f -->
<g id="edge17" class="edge">
<title>place_b503304f0fe3229614f5e34f3e48fefa4dc7f5c2&#45;&gt;transition_fe5dbbcea5ce7e2988b8c69bcfdfde8904aabc1f</title>
<path fill="none" stroke="#333333" d="M1023.02,-294.09C1034.32,-290.31 1046.55,-286.58 1057.95,-283.44"/>
<polygon fill="#333333" stroke="#333333" points="1058.4,-285.13 1062.77,-282.14 1057.49,-281.75 1058.4,-285.13"/>
</g>
<!-- transition_17ba0791499db908433b80f37c5fbc89b870084b -->
<g id="node20" class="node">
<title>transition_17ba0791499db908433b80f37c5fbc89b870084b</title>
<polygon fill="none" stroke="#333333" points="1140.35,-547.5 1066.35,-547.5 1066.35,-473.5 1140.35,-473.5 1140.35,-547.5"/>
<text text-anchor="middle" x="1103.35" y="-508.3" font-family="Arial" font-size="9.00">skip_payment</text>
</g>
<!-- place_b503304f0fe3229614f5e34f3e48fefa4dc7f5c2&#45;&gt;transition_17ba0791499db908433b80f37c5fbc89b870084b -->
<g id="edge23" class="edge">
<title>place_b503304f0fe3229614f5e34f3e48fefa4dc7f5c2&#45;&gt;transition_17ba0791499db908433b80f37c5fbc89b870084b</title>
<path fill="none" stroke="#333333" d="M1000.67,-356.23C1016.15,-387.26 1038.82,-429.73 1062.85,-464.5 1063.94,-466.06 1065.06,-467.64 1066.22,-469.21"/>
<polygon fill="#333333" stroke="#333333" points="1064.94,-470.42 1069.35,-473.36 1067.74,-468.32 1064.94,-470.42"/>
</g>
<!-- transition_f1abd670358e036c31296e66b3b66c382ac00812 -->
<g id="node24" class="node">
<title>transition_f1abd670358e036c31296e66b3b66c382ac00812</title>
<polygon fill="none" stroke="#333333" points="1143.85,-455 1062.85,-455 1062.85,-374 1143.85,-374 1143.85,-455"/>
<text text-anchor="middle" x="1103.35" y="-412.3" font-family="Arial" font-size="9.00">select_payment</text>
</g>
<!-- place_b503304f0fe3229614f5e34f3e48fefa4dc7f5c2&#45;&gt;transition_f1abd670358e036c31296e66b3b66c382ac00812 -->
<g id="edge31" class="edge">
<title>place_b503304f0fe3229614f5e34f3e48fefa4dc7f5c2&#45;&gt;transition_f1abd670358e036c31296e66b3b66c382ac00812</title>
<path fill="none" stroke="#333333" d="M1016.62,-343.53C1029.85,-354.48 1044.94,-366.97 1058.74,-378.4"/>
<polygon fill="#333333" stroke="#333333" points="1057.63,-379.75 1062.6,-381.59 1059.86,-377.05 1057.63,-379.75"/>
</g>
<!-- place_d32f196982e3fb5b5b2c59e1c5e0d888fb0fbac0 -->
<g id="node4" class="node">
<title>place_d32f196982e3fb5b5b2c59e1c5e0d888fb0fbac0</title>
<ellipse fill="none" stroke="#333333" cx="494.96" cy="-432.5" rx="45.92" ry="45.92"/>
<text text-anchor="middle" x="494.96" y="-430.3" font-family="Arial" font-size="9.00">shipping_skipped</text>
</g>
<!-- transition_77de68daecd823babbb58edb1c8e14d7106e83bb -->
<g id="node12" class="node">
<title>transition_77de68daecd823babbb58edb1c8e14d7106e83bb</title>
<polygon fill="none" stroke="#333333" points="649.92,-686.5 577.92,-686.5 577.92,-614.5 649.92,-614.5 649.92,-686.5"/>
<text text-anchor="middle" x="613.92" y="-648.3" font-family="Arial" font-size="9.00">address</text>
</g>
<!-- place_d32f196982e3fb5b5b2c59e1c5e0d888fb0fbac0&#45;&gt;transition_77de68daecd823babbb58edb1c8e14d7106e83bb -->
<g id="edge7" class="edge">
<title>place_d32f196982e3fb5b5b2c59e1c5e0d888fb0fbac0&#45;&gt;transition_77de68daecd823babbb58edb1c8e14d7106e83bb</title>
<path fill="none" stroke="#333333" d="M525.04,-467.42C530.81,-475.35 536.45,-483.97 540.92,-492.5 564.39,-537.32 553.87,-555.46 576.92,-600.5 578.56,-603.71 580.39,-606.94 582.34,-610.13"/>
<polygon fill="#333333" stroke="#333333" points="580.91,-611.14 585.05,-614.45 583.87,-609.28 580.91,-611.14"/>
</g>
<!-- transition_7b52009b64fd0a2a49e6d8a939753077792b0554 -->
<g id="node21" class="node">
<title>transition_7b52009b64fd0a2a49e6d8a939753077792b0554</title>
<polygon fill="none" stroke="#333333" points="650.92,-472.5 576.92,-472.5 576.92,-398.5 650.92,-398.5 650.92,-472.5"/>
<text text-anchor="middle" x="613.92" y="-433.3" font-family="Arial" font-size="9.00">skip_payment</text>
</g>
<!-- place_d32f196982e3fb5b5b2c59e1c5e0d888fb0fbac0&#45;&gt;transition_7b52009b64fd0a2a49e6d8a939753077792b0554 -->
<g id="edge25" class="edge">
<title>place_d32f196982e3fb5b5b2c59e1c5e0d888fb0fbac0&#45;&gt;transition_7b52009b64fd0a2a49e6d8a939753077792b0554</title>
<path fill="none" stroke="#333333" d="M541.18,-433.66C551.25,-433.92 561.88,-434.19 571.78,-434.44"/>
<polygon fill="#333333" stroke="#333333" points="571.83,-436.2 576.88,-434.58 571.92,-432.7 571.83,-436.2"/>
</g>
<!-- transition_fa35e192121eabf3dabf9f5ea6abdbcbc107ac3b -->
<g id="node23" class="node">
<title>transition_fa35e192121eabf3dabf9f5ea6abdbcbc107ac3b</title>
<polygon fill="none" stroke="#333333" points="1019.85,-658 938.85,-658 938.85,-577 1019.85,-577 1019.85,-658"/>
<text text-anchor="middle" x="979.35" y="-615.3" font-family="Arial" font-size="9.00">select_payment</text>
</g>
<!-- place_d32f196982e3fb5b5b2c59e1c5e0d888fb0fbac0&#45;&gt;transition_fa35e192121eabf3dabf9f5ea6abdbcbc107ac3b -->
<g id="edge29" class="edge">
<title>place_d32f196982e3fb5b5b2c59e1c5e0d888fb0fbac0&#45;&gt;transition_fa35e192121eabf3dabf9f5ea6abdbcbc107ac3b</title>
<path fill="none" stroke="#333333" d="M533.73,-457.69C547.03,-465.94 562.32,-474.71 576.92,-481.5 701.77,-539.59 858.6,-585.43 933.94,-605.88"/>
<polygon fill="#333333" stroke="#333333" points="933.5,-607.58 938.78,-607.19 934.41,-604.2 933.5,-607.58"/>
</g>
<!-- place_6f3aef6e8830c76c40e1ef96ea03bbd9ae20edc4 -->
<g id="node5" class="node">
<title>place_6f3aef6e8830c76c40e1ef96ea03bbd9ae20edc4</title>
<ellipse fill="none" stroke="#333333" cx="1227.36" cy="-421.5" rx="47.52" ry="47.52"/>
<text text-anchor="middle" x="1227.36" y="-419.3" font-family="Arial" font-size="9.00">payment_selected</text>
</g>
<!-- transition_1b6453892473a467d07372d45eb05abc2031647a -->
<g id="node13" class="node">
<title>transition_1b6453892473a467d07372d45eb05abc2031647a</title>
<polygon fill="none" stroke="#333333" points="1387.37,-208.5 1315.37,-208.5 1315.37,-136.5 1387.37,-136.5 1387.37,-208.5"/>
<text text-anchor="middle" x="1351.37" y="-170.3" font-family="Arial" font-size="9.00">address</text>
</g>
<!-- place_6f3aef6e8830c76c40e1ef96ea03bbd9ae20edc4&#45;&gt;transition_1b6453892473a467d07372d45eb05abc2031647a -->
<g id="edge9" class="edge">
<title>place_6f3aef6e8830c76c40e1ef96ea03bbd9ae20edc4&#45;&gt;transition_1b6453892473a467d07372d45eb05abc2031647a</title>
<path fill="none" stroke="#333333" d="M1249.2,-378.98C1271.9,-332.65 1307.96,-259.05 1330.34,-213.38"/>
<polygon fill="#333333" stroke="#333333" points="1331.97,-214.04 1332.6,-208.78 1328.83,-212.5 1331.97,-214.04"/>
</g>
<!-- transition_0ade7c2cf97f75d009975f4d720d1fa6c19f4897 -->
<g id="node18" class="node">
<title>transition_0ade7c2cf97f75d009975f4d720d1fa6c19f4897</title>
<polygon fill="none" stroke="#333333" points="1391.87,-363 1310.87,-363 1310.87,-282 1391.87,-282 1391.87,-363"/>
<text text-anchor="middle" x="1351.37" y="-320.3" font-family="Arial" font-size="9.00">select_shipping</text>
</g>
<!-- place_6f3aef6e8830c76c40e1ef96ea03bbd9ae20edc4&#45;&gt;transition_0ade7c2cf97f75d009975f4d720d1fa6c19f4897 -->
<g id="edge19" class="edge">
<title>place_6f3aef6e8830c76c40e1ef96ea03bbd9ae20edc4&#45;&gt;transition_0ade7c2cf97f75d009975f4d720d1fa6c19f4897</title>
<path fill="none" stroke="#333333" d="M1264.97,-391.8C1278.07,-381.16 1292.98,-369.07 1306.62,-358"/>
<polygon fill="#333333" stroke="#333333" points="1308.03,-359.11 1310.81,-354.6 1305.83,-356.39 1308.03,-359.11"/>
</g>
<!-- transition_bd307a3ec329e10a2cff8fb87480823da114f8f4 -->
<g id="node22" class="node">
<title>transition_bd307a3ec329e10a2cff8fb87480823da114f8f4</title>
<polygon fill="none" stroke="#333333" points="1391.87,-462 1310.87,-462 1310.87,-381 1391.87,-381 1391.87,-462"/>
<text text-anchor="middle" x="1351.37" y="-419.3" font-family="Arial" font-size="9.00">select_payment</text>
</g>
<!-- place_6f3aef6e8830c76c40e1ef96ea03bbd9ae20edc4&#45;&gt;transition_bd307a3ec329e10a2cff8fb87480823da114f8f4 -->
<g id="edge27" class="edge">
<title>place_6f3aef6e8830c76c40e1ef96ea03bbd9ae20edc4&#45;&gt;transition_bd307a3ec329e10a2cff8fb87480823da114f8f4</title>
<path fill="none" stroke="#333333" d="M1274.49,-414.93C1284.6,-414.68 1295.3,-414.69 1305.37,-414.96"/>
<polygon fill="#333333" stroke="#333333" points="1305.52,-416.72 1310.57,-415.13 1305.63,-413.22 1305.52,-416.72"/>
</g>
<!-- transition_1574bddb75c78a6fd2251d61e2993b5146201319 -->
<g id="node25" class="node">
<title>transition_1574bddb75c78a6fd2251d61e2993b5146201319</title>
<polygon fill="none" stroke="#333333" points="1387.37,-552.5 1315.37,-552.5 1315.37,-480.5 1387.37,-480.5 1387.37,-552.5"/>
<text text-anchor="middle" x="1351.37" y="-514.3" font-family="Arial" font-size="9.00">complete</text>
</g>
<!-- place_6f3aef6e8830c76c40e1ef96ea03bbd9ae20edc4&#45;&gt;transition_1574bddb75c78a6fd2251d61e2993b5146201319 -->
<g id="edge33" class="edge">
<title>place_6f3aef6e8830c76c40e1ef96ea03bbd9ae20edc4&#45;&gt;transition_1574bddb75c78a6fd2251d61e2993b5146201319</title>
<path fill="none" stroke="#333333" d="M1265.3,-450.26C1279.79,-461.54 1296.44,-474.5 1311.14,-485.95"/>
<polygon fill="#333333" stroke="#333333" points="1310.21,-487.45 1315.23,-489.14 1312.36,-484.69 1310.21,-487.45"/>
</g>
<!-- place_187955bd49ccea4edc51b03b9f2895d2b49100ce -->
<g id="node6" class="node">
<title>place_187955bd49ccea4edc51b03b9f2895d2b49100ce</title>
<ellipse fill="none" stroke="#333333" cx="732.88" cy="-441.5" rx="45.92" ry="45.92"/>
<text text-anchor="middle" x="732.88" y="-439.3" font-family="Arial" font-size="9.00">payment_skipped</text>
</g>
<!-- transition_ac3478d69a3c81fa62e60f5c3696165a4e5e6ac4 -->
<g id="node14" class="node">
<title>transition_ac3478d69a3c81fa62e60f5c3696165a4e5e6ac4</title>
<polygon fill="none" stroke="#333333" points="891.34,-382.5 819.34,-382.5 819.34,-310.5 891.34,-310.5 891.34,-382.5"/>
<text text-anchor="middle" x="855.34" y="-344.3" font-family="Arial" font-size="9.00">address</text>
</g>
<!-- place_187955bd49ccea4edc51b03b9f2895d2b49100ce&#45;&gt;transition_ac3478d69a3c81fa62e60f5c3696165a4e5e6ac4 -->
<g id="edge11" class="edge">
<title>place_187955bd49ccea4edc51b03b9f2895d2b49100ce&#45;&gt;transition_ac3478d69a3c81fa62e60f5c3696165a4e5e6ac4</title>
<path fill="none" stroke="#333333" d="M769.37,-413.51C783.7,-402.2 800.3,-389.11 815.01,-377.52"/>
<polygon fill="#333333" stroke="#333333" points="816.26,-378.76 819.1,-374.29 814.09,-376.01 816.26,-378.76"/>
</g>
<!-- transition_b1d5781111d84f7b3fe45a0852e59758cd7a87e5 -->
<g id="node19" class="node">
<title>transition_b1d5781111d84f7b3fe45a0852e59758cd7a87e5</title>
<polygon fill="none" stroke="#333333" points="895.84,-482 814.84,-482 814.84,-401 895.84,-401 895.84,-482"/>
<text text-anchor="middle" x="855.34" y="-439.3" font-family="Arial" font-size="9.00">select_shipping</text>
</g>
<!-- place_187955bd49ccea4edc51b03b9f2895d2b49100ce&#45;&gt;transition_b1d5781111d84f7b3fe45a0852e59758cd7a87e5 -->
<g id="edge21" class="edge">
<title>place_187955bd49ccea4edc51b03b9f2895d2b49100ce&#45;&gt;transition_b1d5781111d84f7b3fe45a0852e59758cd7a87e5</title>
<path fill="none" stroke="#333333" d="M779.08,-441.5C789.08,-441.5 799.68,-441.5 809.66,-441.5"/>
<polygon fill="#333333" stroke="#333333" points="809.82,-443.25 814.82,-441.5 809.82,-439.75 809.82,-443.25"/>
</g>
<!-- transition_0716d9708d321ffb6a00818614779e779925365c -->
<g id="node26" class="node">
<title>transition_0716d9708d321ffb6a00818614779e779925365c</title>
<polygon fill="none" stroke="#333333" points="1263.36,-613.5 1191.36,-613.5 1191.36,-541.5 1263.36,-541.5 1263.36,-613.5"/>
<text text-anchor="middle" x="1227.36" y="-575.3" font-family="Arial" font-size="9.00">complete</text>
</g>
<!-- place_187955bd49ccea4edc51b03b9f2895d2b49100ce&#45;&gt;transition_0716d9708d321ffb6a00818614779e779925365c -->
<g id="edge35" class="edge">
<title>place_187955bd49ccea4edc51b03b9f2895d2b49100ce&#45;&gt;transition_0716d9708d321ffb6a00818614779e779925365c</title>
<path fill="none" stroke="#333333" d="M763.9,-475.53C777.99,-489.43 795.86,-504.35 814.84,-513.5 880.13,-544.98 1095.59,-566.41 1185.94,-574.22"/>
<polygon fill="#333333" stroke="#333333" points="1186.05,-575.99 1191.19,-574.67 1186.35,-572.5 1186.05,-575.99"/>
</g>
<!-- place_231e564db4cdb44a6545583a8d460edc7f9f97ca -->
<g id="node7" class="node">
<title>place_231e564db4cdb44a6545583a8d460edc7f9f97ca</title>
<ellipse fill="none" stroke="#333333" cx="1463.87" cy="-548.5" rx="36" ry="36"/>
<text text-anchor="middle" x="1463.87" y="-546.3" font-family="Arial" font-size="9.00">completed</text>
</g>
<!-- place_1bfe130925782db14e4d56df115d8e3844fe49b1 -->
<g id="node8" class="node">
<title>place_1bfe130925782db14e4d56df115d8e3844fe49b1</title>
<ellipse fill="none" stroke="#333333" cx="494.96" cy="-44.5" rx="36.83" ry="36.83"/>
<text text-anchor="middle" x="494.96" y="-42.3" font-family="Arial" font-size="9.00">custom_state</text>
</g>
<!-- transition_b6589fc6ab0dc82cf12099d1c2d40ab994e8410c&#45;&gt;place_74c70e83a9f58141487d73749193bf049153a472 -->
<g id="edge2" class="edge">
<title>transition_b6589fc6ab0dc82cf12099d1c2d40ab994e8410c&#45;&gt;place_74c70e83a9f58141487d73749193bf049153a472</title>
<path fill="none" stroke="#333333" d="M180,-351.5C189.76,-351.5 200.44,-351.5 210.49,-351.5"/>
<polygon fill="#333333" stroke="#333333" points="210.67,-353.25 215.67,-351.5 210.67,-349.75 210.67,-353.25"/>
</g>
<!-- transition_356a192b7913b04c54574d18c28d46e6395428ab&#45;&gt;place_74c70e83a9f58141487d73749193bf049153a472 -->
<g id="edge4" class="edge">
<title>transition_356a192b7913b04c54574d18c28d46e6395428ab&#45;&gt;place_74c70e83a9f58141487d73749193bf049153a472</title>
<path fill="none" stroke="#333333" d="M332.48,-541.66C329.44,-537.7 326.55,-533.6 324,-529.5 296.55,-485.42 275.25,-428.87 263.41,-391.33"/>
<polygon fill="#333333" stroke="#333333" points="265.03,-390.64 261.87,-386.39 261.69,-391.68 265.03,-390.64"/>
</g>
<!-- transition_da4b9237bacccdf19c0760cab7aec4a8359010b0&#45;&gt;place_74c70e83a9f58141487d73749193bf049153a472 -->
<g id="edge6" class="edge">
<title>transition_da4b9237bacccdf19c0760cab7aec4a8359010b0&#45;&gt;place_74c70e83a9f58141487d73749193bf049153a472</title>
<path fill="none" stroke="#333333" d="M1066.96,-185.25C1019.2,-189.98 931.45,-197.5 856.34,-197.5 493.96,-197.5 493.96,-197.5 493.96,-197.5 403.84,-197.5 320.37,-274.93 279.43,-319.98"/>
<polygon fill="#333333" stroke="#333333" points="277.89,-319.08 275.85,-323.97 280.49,-321.42 277.89,-319.08"/>
</g>
<!-- transition_77de68daecd823babbb58edb1c8e14d7106e83bb&#45;&gt;place_74c70e83a9f58141487d73749193bf049153a472 -->
<g id="edge8" class="edge">
<title>transition_77de68daecd823babbb58edb1c8e14d7106e83bb&#45;&gt;place_74c70e83a9f58141487d73749193bf049153a472</title>
<path fill="none" stroke="#333333" d="M577.87,-628.76C503.21,-582.37 334.39,-477.03 324,-466.5 301.6,-443.79 282.97,-412.77 270.42,-388.67"/>
<polygon fill="#333333" stroke="#333333" points="271.84,-387.6 268,-383.95 268.73,-389.2 271.84,-387.6"/>
</g>
<!-- transition_1b6453892473a467d07372d45eb05abc2031647a&#45;&gt;place_74c70e83a9f58141487d73749193bf049153a472 -->
<g id="edge10" class="edge">
<title>transition_1b6453892473a467d07372d45eb05abc2031647a&#45;&gt;place_74c70e83a9f58141487d73749193bf049153a472</title>
<path fill="none" stroke="#333333" d="M1315.07,-159.47C1267.79,-143.2 1180.94,-117.5 1104.35,-117.5 493.96,-117.5 493.96,-117.5 493.96,-117.5 406.76,-117.5 384.35,-152.57 324,-215.5 297.34,-243.3 278.14,-283.1 266.48,-312.47"/>
<polygon fill="#333333" stroke="#333333" points="264.72,-312.16 264.53,-317.45 267.98,-313.43 264.72,-312.16"/>
</g>
<!-- transition_ac3478d69a3c81fa62e60f5c3696165a4e5e6ac4&#45;&gt;place_74c70e83a9f58141487d73749193bf049153a472 -->
<g id="edge12" class="edge">
<title>transition_ac3478d69a3c81fa62e60f5c3696165a4e5e6ac4&#45;&gt;place_74c70e83a9f58141487d73749193bf049153a472</title>
<path fill="none" stroke="#333333" d="M819.05,-347.7C772.35,-349.18 687.47,-351.5 614.92,-351.5 493.96,-351.5 493.96,-351.5 493.96,-351.5 423.32,-351.5 341.04,-351.5 293.21,-351.5"/>
<polygon fill="#333333" stroke="#333333" points="293.12,-349.75 288.12,-351.5 293.12,-353.25 293.12,-349.75"/>
</g>
<!-- transition_c1dfd96eea8cc2b62785275bca38ac261256e278&#45;&gt;place_d32f196982e3fb5b5b2c59e1c5e0d888fb0fbac0 -->
<g id="edge14" class="edge">
<title>transition_c1dfd96eea8cc2b62785275bca38ac261256e278&#45;&gt;place_d32f196982e3fb5b5b2c59e1c5e0d888fb0fbac0</title>
<path fill="none" stroke="#333333" d="M405.83,-424C417.74,-425.15 431.19,-426.45 443.93,-427.68"/>
<polygon fill="#333333" stroke="#333333" points="443.81,-429.42 448.96,-428.16 444.15,-425.94 443.81,-429.42"/>
</g>
<!-- transition_902ba3cda1883801594b6e1b452790cc53948fda&#45;&gt;place_b503304f0fe3229614f5e34f3e48fefa4dc7f5c2 -->
<g id="edge16" class="edge">
<title>transition_902ba3cda1883801594b6e1b452790cc53948fda&#45;&gt;place_b503304f0fe3229614f5e34f3e48fefa4dc7f5c2</title>
<path fill="none" stroke="#333333" d="M773.52,-286.84C806.33,-290.51 854.15,-296.02 895.84,-301.5 905.95,-302.83 916.75,-304.33 927.09,-305.82"/>
<polygon fill="#333333" stroke="#333333" points="926.92,-307.56 932.12,-306.55 927.42,-304.1 926.92,-307.56"/>
</g>
<!-- transition_fe5dbbcea5ce7e2988b8c69bcfdfde8904aabc1f&#45;&gt;place_b503304f0fe3229614f5e34f3e48fefa4dc7f5c2 -->
<g id="edge18" class="edge">
<title>transition_fe5dbbcea5ce7e2988b8c69bcfdfde8904aabc1f&#45;&gt;place_b503304f0fe3229614f5e34f3e48fefa4dc7f5c2</title>
<path fill="none" stroke="#333333" d="M1062.55,-294.94C1052.65,-298.31 1041.89,-301.67 1031.53,-304.65"/>
<polygon fill="#333333" stroke="#333333" points="1030.81,-303.04 1026.47,-306.08 1031.76,-306.4 1030.81,-303.04"/>
</g>
<!-- transition_0ade7c2cf97f75d009975f4d720d1fa6c19f4897&#45;&gt;place_b503304f0fe3229614f5e34f3e48fefa4dc7f5c2 -->
<g id="edge20" class="edge">
<title>transition_0ade7c2cf97f75d009975f4d720d1fa6c19f4897&#45;&gt;place_b503304f0fe3229614f5e34f3e48fefa4dc7f5c2</title>
<path fill="none" stroke="#333333" d="M1310.77,-325.35C1255.25,-328.82 1151.19,-333.42 1062.85,-326.5 1052.67,-325.7 1041.84,-324.36 1031.49,-322.83"/>
<polygon fill="#333333" stroke="#333333" points="1031.66,-321.09 1026.45,-322.07 1031.13,-324.55 1031.66,-321.09"/>
</g>
<!-- transition_b1d5781111d84f7b3fe45a0852e59758cd7a87e5&#45;&gt;place_b503304f0fe3229614f5e34f3e48fefa4dc7f5c2 -->
<g id="edge22" class="edge">
<title>transition_b1d5781111d84f7b3fe45a0852e59758cd7a87e5&#45;&gt;place_b503304f0fe3229614f5e34f3e48fefa4dc7f5c2</title>
<path fill="none" stroke="#333333" d="M895.28,-400.65C910.32,-384.87 927.43,-366.91 942.2,-351.42"/>
<polygon fill="#333333" stroke="#333333" points="943.72,-352.36 945.9,-347.54 941.19,-349.95 943.72,-352.36"/>
</g>
<!-- transition_17ba0791499db908433b80f37c5fbc89b870084b&#45;&gt;place_187955bd49ccea4edc51b03b9f2895d2b49100ce -->
<g id="edge24" class="edge">
<title>transition_17ba0791499db908433b80f37c5fbc89b870084b&#45;&gt;place_187955bd49ccea4edc51b03b9f2895d2b49100ce</title>
<path fill="none" stroke="#333333" d="M1065.91,-513.61C1010.29,-517.14 901.55,-519.24 814.84,-491.5 800.82,-487.02 786.76,-479.6 774.38,-471.84"/>
<polygon fill="#333333" stroke="#333333" points="775.05,-470.19 769.9,-468.96 773.17,-473.14 775.05,-470.19"/>
</g>
<!-- transition_7b52009b64fd0a2a49e6d8a939753077792b0554&#45;&gt;place_187955bd49ccea4edc51b03b9f2895d2b49100ce -->
<g id="edge26" class="edge">
<title>transition_7b52009b64fd0a2a49e6d8a939753077792b0554&#45;&gt;place_187955bd49ccea4edc51b03b9f2895d2b49100ce</title>
<path fill="none" stroke="#333333" d="M650.96,-437.35C660.66,-437.85 671.31,-438.39 681.63,-438.92"/>
<polygon fill="#333333" stroke="#333333" points="681.57,-440.67 686.65,-439.18 681.75,-437.18 681.57,-440.67"/>
</g>
<!-- transition_bd307a3ec329e10a2cff8fb87480823da114f8f4&#45;&gt;place_6f3aef6e8830c76c40e1ef96ea03bbd9ae20edc4 -->
<g id="edge28" class="edge">
<title>transition_bd307a3ec329e10a2cff8fb87480823da114f8f4&#45;&gt;place_6f3aef6e8830c76c40e1ef96ea03bbd9ae20edc4</title>
<path fill="none" stroke="#333333" d="M1310.57,-427.87C1300.67,-428.24 1289.91,-428.34 1279.54,-428.17"/>
<polygon fill="#333333" stroke="#333333" points="1279.52,-426.42 1274.49,-428.07 1279.45,-429.92 1279.52,-426.42"/>
</g>
<!-- transition_fa35e192121eabf3dabf9f5ea6abdbcbc107ac3b&#45;&gt;place_6f3aef6e8830c76c40e1ef96ea03bbd9ae20edc4 -->
<g id="edge30" class="edge">
<title>transition_fa35e192121eabf3dabf9f5ea6abdbcbc107ac3b&#45;&gt;place_6f3aef6e8830c76c40e1ef96ea03bbd9ae20edc4</title>
<path fill="none" stroke="#333333" d="M1020.04,-610.38C1055.66,-602.34 1107.74,-586.28 1143.85,-556.5 1171.71,-533.52 1192.72,-498.54 1206.56,-469.95"/>
<polygon fill="#333333" stroke="#333333" points="1208.15,-470.68 1208.72,-465.42 1204.99,-469.18 1208.15,-470.68"/>
</g>
<!-- transition_f1abd670358e036c31296e66b3b66c382ac00812&#45;&gt;place_6f3aef6e8830c76c40e1ef96ea03bbd9ae20edc4 -->
<g id="edge32" class="edge">
<title>transition_f1abd670358e036c31296e66b3b66c382ac00812&#45;&gt;place_6f3aef6e8830c76c40e1ef96ea03bbd9ae20edc4</title>
<path fill="none" stroke="#333333" d="M1143.97,-416.77C1153.77,-417.34 1164.43,-417.95 1174.71,-418.54"/>
<polygon fill="#333333" stroke="#333333" points="1174.64,-420.29 1179.73,-418.82 1174.84,-416.79 1174.64,-420.29"/>
</g>
<!-- transition_1574bddb75c78a6fd2251d61e2993b5146201319&#45;&gt;place_231e564db4cdb44a6545583a8d460edc7f9f97ca -->
<g id="edge34" class="edge">
<title>transition_1574bddb75c78a6fd2251d61e2993b5146201319&#45;&gt;place_231e564db4cdb44a6545583a8d460edc7f9f97ca</title>
<path fill="none" stroke="#333333" d="M1387.64,-526.71C1399.24,-530.07 1412.21,-533.83 1424.06,-537.26"/>
<polygon fill="#333333" stroke="#333333" points="1423.78,-539 1429.07,-538.71 1424.75,-535.64 1423.78,-539"/>
</g>
<!-- transition_0716d9708d321ffb6a00818614779e779925365c&#45;&gt;place_231e564db4cdb44a6545583a8d460edc7f9f97ca -->
<g id="edge36" class="edge">
<title>transition_0716d9708d321ffb6a00818614779e779925365c&#45;&gt;place_231e564db4cdb44a6545583a8d460edc7f9f97ca</title>
<path fill="none" stroke="#333333" d="M1263.55,-574.91C1296.73,-572.27 1347.81,-567.68 1391.87,-561.5 1402.11,-560.06 1413.12,-558.2 1423.35,-556.34"/>
<polygon fill="#333333" stroke="#333333" points="1423.7,-558.06 1428.3,-555.43 1423.06,-554.61 1423.7,-558.06"/>
</g>
<!-- transition_9e6a55b6b4563e652a23be9d623ca5055c356940&#45;&gt;place_1bfe130925782db14e4d56df115d8e3844fe49b1 -->
<g id="edge38" class="edge">
<title>transition_9e6a55b6b4563e652a23be9d623ca5055c356940&#45;&gt;place_1bfe130925782db14e4d56df115d8e3844fe49b1</title>
<path fill="none" stroke="#333333" d="M413.03,-44.5C426.03,-44.5 440.22,-44.5 453.04,-44.5"/>
<polygon fill="#333333" stroke="#333333" points="453.07,-46.25 458.07,-44.5 453.07,-42.75 453.07,-46.25"/>
</g>
</g>
</svg>
